<svg xmlns="http://www.w3.org/2000/svg" width="980" height="560" viewBox="0 0 980 560">
<rect width="100%" height="100%" fill="#ffffff"/>
<rect x="0" y="0" width="100%" height="56" fill="#f4f8ff"/>
<text x="90" y="34" font-size="24" font-family="Arial, sans-serif" fill="#1b2a41">Server RSS vs Test Pressure</text>
<text x="90" y="54" font-size="13" font-family="Arial, sans-serif" fill="#415a77">X: planned calls mean, Y: peak RSS MB, grouped by virtual pool size</text>
<line x1="90" y1="72.00" x2="780.00" y2="72.00" stroke="#e5e9f0" stroke-width="1"/>
<text x="78.00" y="76.00" text-anchor="end" font-size="12" font-family="Arial, sans-serif" fill="#4c566a">79.048</text>
<line x1="90" y1="155.20" x2="780.00" y2="155.20" stroke="#e5e9f0" stroke-width="1"/>
<text x="78.00" y="159.20" text-anchor="end" font-size="12" font-family="Arial, sans-serif" fill="#4c566a">74.318</text>
<line x1="90" y1="238.40" x2="780.00" y2="238.40" stroke="#e5e9f0" stroke-width="1"/>
<text x="78.00" y="242.40" text-anchor="end" font-size="12" font-family="Arial, sans-serif" fill="#4c566a">69.588</text>
<line x1="90" y1="321.60" x2="780.00" y2="321.60" stroke="#e5e9f0" stroke-width="1"/>
<text x="78.00" y="325.60" text-anchor="end" font-size="12" font-family="Arial, sans-serif" fill="#4c566a">64.858</text>
<line x1="90" y1="404.80" x2="780.00" y2="404.80" stroke="#e5e9f0" stroke-width="1"/>
<text x="78.00" y="408.80" text-anchor="end" font-size="12" font-family="Arial, sans-serif" fill="#4c566a">60.128</text>
<line x1="90" y1="488.00" x2="780.00" y2="488.00" stroke="#e5e9f0" stroke-width="1"/>
<text x="78.00" y="492.00" text-anchor="end" font-size="12" font-family="Arial, sans-serif" fill="#4c566a">55.398</text>
<line x1="90.00" y1="72" x2="90.00" y2="488.00" stroke="#f1f3f8" stroke-width="1"/>
<text x="90.00" y="510.00" text-anchor="middle" font-size="12" font-family="Arial, sans-serif" fill="#4c566a">40</text>
<line x1="262.50" y1="72" x2="262.50" y2="488.00" stroke="#f1f3f8" stroke-width="1"/>
<text x="262.50" y="510.00" text-anchor="middle" font-size="12" font-family="Arial, sans-serif" fill="#4c566a">80</text>
<line x1="435.00" y1="72" x2="435.00" y2="488.00" stroke="#f1f3f8" stroke-width="1"/>
<text x="435.00" y="510.00" text-anchor="middle" font-size="12" font-family="Arial, sans-serif" fill="#4c566a">120</text>
<line x1="607.50" y1="72" x2="607.50" y2="488.00" stroke="#f1f3f8" stroke-width="1"/>
<text x="607.50" y="510.00" text-anchor="middle" font-size="12" font-family="Arial, sans-serif" fill="#4c566a">160</text>
<line x1="780.00" y1="72" x2="780.00" y2="488.00" stroke="#f1f3f8" stroke-width="1"/>
<text x="780.00" y="510.00" text-anchor="middle" font-size="12" font-family="Arial, sans-serif" fill="#4c566a">200</text>
<line x1="90" y1="488.00" x2="780.00" y2="488.00" stroke="#2e3440" stroke-width="1.5"/>
<line x1="90" y1="72" x2="90" y2="488.00" stroke="#2e3440" stroke-width="1.5"/>
<text x="435.00" y="540.00" text-anchor="middle" font-size="13" font-family="Arial, sans-serif" fill="#2e3440">Planned Calls (Mean)</text>
<text x="20" y="280.00" transform="rotate(-90 20 280.00)" text-anchor="middle" font-size="13" font-family="Arial, sans-serif" fill="#2e3440">Peak RSS (MB)</text>
<polyline points="90.00,121.92 262.50,184.72 435.00,166.42 607.50,167.65 780.00,163.43" fill="none" stroke="#1f77b4" stroke-width="2.5"/>
<circle cx="90.00" cy="121.92" r="3.5" fill="#1f77b4"/>
<circle cx="262.50" cy="184.72" r="3.5" fill="#1f77b4"/>
<circle cx="435.00" cy="166.42" r="3.5" fill="#1f77b4"/>
<circle cx="607.50" cy="167.65" r="3.5" fill="#1f77b4"/>
<circle cx="780.00" cy="163.43" r="3.5" fill="#1f77b4"/>
<polyline points="90.00,239.95 262.50,203.54 435.00,192.98 607.50,185.77 780.00,159.91" fill="none" stroke="#ff7f0e" stroke-width="2.5"/>
<circle cx="90.00" cy="239.95" r="3.5" fill="#ff7f0e"/>
<circle cx="262.50" cy="203.54" r="3.5" fill="#ff7f0e"/>
<circle cx="435.00" cy="192.98" r="3.5" fill="#ff7f0e"/>
<circle cx="607.50" cy="185.77" r="3.5" fill="#ff7f0e"/>
<circle cx="780.00" cy="159.91" r="3.5" fill="#ff7f0e"/>
<polyline points="90.00,146.37 262.50,454.72 435.00,384.18 607.50,352.35 780.00,286.91" fill="none" stroke="#2ca02c" stroke-width="2.5"/>
<circle cx="90.00" cy="146.37" r="3.5" fill="#2ca02c"/>
<circle cx="262.50" cy="454.72" r="3.5" fill="#2ca02c"/>
<circle cx="435.00" cy="384.18" r="3.5" fill="#2ca02c"/>
<circle cx="607.50" cy="352.35" r="3.5" fill="#2ca02c"/>
<circle cx="780.00" cy="286.91" r="3.5" fill="#2ca02c"/>
<line x1="800" y1="80" x2="822" y2="80" stroke="#1f77b4" stroke-width="3"/>
<text x="830" y="84" font-size="12" font-family="Arial, sans-serif" fill="#2e3440">virtual=10</text>
<line x1="800" y1="102" x2="822" y2="102" stroke="#ff7f0e" stroke-width="3"/>
<text x="830" y="106" font-size="12" font-family="Arial, sans-serif" fill="#2e3440">virtual=20</text>
<line x1="800" y1="124" x2="822" y2="124" stroke="#2ca02c" stroke-width="3"/>
<text x="830" y="128" font-size="12" font-family="Arial, sans-serif" fill="#2e3440">virtual=30</text>
</svg>
