<svg xmlns="http://www.w3.org/2000/svg" width="980" height="620" viewBox="0 0 980 620">
<rect width="100%" height="100%" fill="#ffffff"/>
<rect x="0" y="0" width="100%" height="56" fill="#f4f8ff"/>
<text x="120" y="34" font-size="24" font-family="Arial, sans-serif" fill="#1b2a41">Terminal Completed Rate Heatmap</text>
<text x="120" y="54" font-size="13" font-family="Arial, sans-serif" fill="#415a77">Rows: virtual pool size, columns: online users</text>
<rect x="120.00" y="72.00" width="138.00" height="152.67" fill="#1a9850" stroke="#ffffff" stroke-width="1"/>
<text x="189.00" y="152.33" text-anchor="middle" font-size="12" font-family="Arial, sans-serif" fill="#1f2937">1.000</text>
<rect x="258.00" y="72.00" width="138.00" height="152.67" fill="#1a9850" stroke="#ffffff" stroke-width="1"/>
<text x="327.00" y="152.33" text-anchor="middle" font-size="12" font-family="Arial, sans-serif" fill="#1f2937">1.000</text>
<rect x="396.00" y="72.00" width="138.00" height="152.67" fill="#e6734d" stroke="#ffffff" stroke-width="1"/>
<text x="465.00" y="152.33" text-anchor="middle" font-size="12" font-family="Arial, sans-serif" fill="#1f2937">0.900</text>
<rect x="534.00" y="72.00" width="138.00" height="152.67" fill="#e7d985" stroke="#ffffff" stroke-width="1"/>
<text x="603.00" y="152.33" text-anchor="middle" font-size="12" font-family="Arial, sans-serif" fill="#1f2937">0.944</text>
<rect x="672.00" y="72.00" width="138.00" height="152.67" fill="#1a9850" stroke="#ffffff" stroke-width="1"/>
<text x="741.00" y="152.33" text-anchor="middle" font-size="12" font-family="Arial, sans-serif" fill="#1f2937">1.000</text>
<rect x="120.00" y="224.67" width="138.00" height="152.67" fill="#e98356" stroke="#ffffff" stroke-width="1"/>
<text x="189.00" y="305.00" text-anchor="middle" font-size="12" font-family="Arial, sans-serif" fill="#1f2937">0.905</text>
<rect x="258.00" y="224.67" width="138.00" height="152.67" fill="#1a9850" stroke="#ffffff" stroke-width="1"/>
<text x="327.00" y="305.00" text-anchor="middle" font-size="12" font-family="Arial, sans-serif" fill="#1f2937">1.000</text>
<rect x="396.00" y="224.67" width="138.00" height="152.67" fill="#face81" stroke="#ffffff" stroke-width="1"/>
<text x="465.00" y="305.00" text-anchor="middle" font-size="12" font-family="Arial, sans-serif" fill="#1f2937">0.932</text>
<rect x="534.00" y="224.67" width="138.00" height="152.67" fill="#f9ca7f" stroke="#ffffff" stroke-width="1"/>
<text x="603.00" y="305.00" text-anchor="middle" font-size="12" font-family="Arial, sans-serif" fill="#1f2937">0.931</text>
<rect x="672.00" y="224.67" width="138.00" height="152.67" fill="#f6ba76" stroke="#ffffff" stroke-width="1"/>
<text x="741.00" y="305.00" text-anchor="middle" font-size="12" font-family="Arial, sans-serif" fill="#1f2937">0.925</text>
<rect x="120.00" y="377.33" width="138.00" height="152.67" fill="#f5b673" stroke="#ffffff" stroke-width="1"/>
<text x="189.00" y="457.67" text-anchor="middle" font-size="12" font-family="Arial, sans-serif" fill="#1f2937">0.924</text>
<rect x="258.00" y="377.33" width="138.00" height="152.67" fill="#5aac60" stroke="#ffffff" stroke-width="1"/>
<text x="327.00" y="457.67" text-anchor="middle" font-size="12" font-family="Arial, sans-serif" fill="#1f2937">0.983</text>
<rect x="396.00" y="377.33" width="138.00" height="152.67" fill="#d3d280" stroke="#ffffff" stroke-width="1"/>
<text x="465.00" y="457.67" text-anchor="middle" font-size="12" font-family="Arial, sans-serif" fill="#1f2937">0.950</text>
<rect x="534.00" y="377.33" width="138.00" height="152.67" fill="#d73027" stroke="#ffffff" stroke-width="1"/>
<text x="603.00" y="457.67" text-anchor="middle" font-size="12" font-family="Arial, sans-serif" fill="#1f2937">0.876</text>
<rect x="672.00" y="377.33" width="138.00" height="152.67" fill="#f7c179" stroke="#ffffff" stroke-width="1"/>
<text x="741.00" y="457.67" text-anchor="middle" font-size="12" font-family="Arial, sans-serif" fill="#1f2937">0.927</text>
<text x="189.00" y="554.00" text-anchor="middle" font-size="12" font-family="Arial, sans-serif" fill="#4c566a">20</text>
<text x="327.00" y="554.00" text-anchor="middle" font-size="12" font-family="Arial, sans-serif" fill="#4c566a">40</text>
<text x="465.00" y="554.00" text-anchor="middle" font-size="12" font-family="Arial, sans-serif" fill="#4c566a">60</text>
<text x="603.00" y="554.00" text-anchor="middle" font-size="12" font-family="Arial, sans-serif" fill="#4c566a">80</text>
<text x="741.00" y="554.00" text-anchor="middle" font-size="12" font-family="Arial, sans-serif" fill="#4c566a">100</text>
<text x="108.00" y="152.33" text-anchor="end" font-size="12" font-family="Arial, sans-serif" fill="#4c566a">10</text>
<text x="108.00" y="305.00" text-anchor="end" font-size="12" font-family="Arial, sans-serif" fill="#4c566a">20</text>
<text x="108.00" y="457.67" text-anchor="end" font-size="12" font-family="Arial, sans-serif" fill="#4c566a">30</text>
<line x1="120" y1="530.00" x2="810.00" y2="530.00" stroke="#2e3440" stroke-width="1.5"/>
<line x1="120" y1="72" x2="120" y2="530.00" stroke="#2e3440" stroke-width="1.5"/>
<text x="465.00" y="592.00" text-anchor="middle" font-size="13" font-family="Arial, sans-serif" fill="#2e3440">Online Users</text>
<text x="26" y="301.00" transform="rotate(-90 26 301.00)" text-anchor="middle" font-size="13" font-family="Arial, sans-serif" fill="#2e3440">Virtual Number Count</text>
<rect x="838" y="92.00" width="24" height="13.93" fill="#1a9850" stroke="none"/>
<rect x="838" y="105.93" width="24" height="13.93" fill="#299d54" stroke="none"/>
<rect x="838" y="119.87" width="24" height="13.93" fill="#38a258" stroke="none"/>
<rect x="838" y="133.80" width="24" height="13.93" fill="#48a65c" stroke="none"/>
<rect x="838" y="147.73" width="24" height="13.93" fill="#57ab60" stroke="none"/>
<rect x="838" y="161.67" width="24" height="13.93" fill="#66b064" stroke="none"/>
<rect x="838" y="175.60" width="24" height="13.93" fill="#75b568" stroke="none"/>
<rect x="838" y="189.53" width="24" height="13.93" fill="#84ba6c" stroke="none"/>
<rect x="838" y="203.47" width="24" height="13.93" fill="#94be6f" stroke="none"/>
<rect x="838" y="217.40" width="24" height="13.93" fill="#a3c373" stroke="none"/>
<rect x="838" y="231.33" width="24" height="13.93" fill="#b2c877" stroke="none"/>
<rect x="838" y="245.27" width="24" height="13.93" fill="#c1cd7b" stroke="none"/>
<rect x="838" y="259.20" width="24" height="13.93" fill="#d0d27f" stroke="none"/>
<rect x="838" y="273.13" width="24" height="13.93" fill="#e0d683" stroke="none"/>
<rect x="838" y="287.07" width="24" height="13.93" fill="#efdb87" stroke="none"/>
<rect x="838" y="301.00" width="24" height="13.93" fill="#fee08b" stroke="none"/>
<rect x="838" y="314.93" width="24" height="13.93" fill="#fbd484" stroke="none"/>
<rect x="838" y="328.87" width="24" height="13.93" fill="#f9c97e" stroke="none"/>
<rect x="838" y="342.80" width="24" height="13.93" fill="#f6bd77" stroke="none"/>
<rect x="838" y="356.73" width="24" height="13.93" fill="#f4b170" stroke="none"/>
<rect x="838" y="370.67" width="24" height="13.93" fill="#f1a56a" stroke="none"/>
<rect x="838" y="384.60" width="24" height="13.93" fill="#ee9a63" stroke="none"/>
<rect x="838" y="398.53" width="24" height="13.93" fill="#ec8e5c" stroke="none"/>
<rect x="838" y="412.47" width="24" height="13.93" fill="#e98256" stroke="none"/>
<rect x="838" y="426.40" width="24" height="13.93" fill="#e7764f" stroke="none"/>
<rect x="838" y="440.33" width="24" height="13.93" fill="#e46b48" stroke="none"/>
<rect x="838" y="454.27" width="24" height="13.93" fill="#e15f42" stroke="none"/>
<rect x="838" y="468.20" width="24" height="13.93" fill="#df533b" stroke="none"/>
<rect x="838" y="482.13" width="24" height="13.93" fill="#dc4734" stroke="none"/>
<rect x="838" y="496.07" width="24" height="13.93" fill="#da3c2e" stroke="none"/>
<rect x="838" y="92" width="24" height="418" fill="none" stroke="#34495e" stroke-width="1"/>
<text x="872" y="96" font-size="12" font-family="Arial, sans-serif" fill="#4c566a">1.000</text>
<text x="872" y="514.00" font-size="12" font-family="Arial, sans-serif" fill="#4c566a">0.876</text>
<text x="836" y="82" font-size="12" font-family="Arial, sans-serif" fill="#2e3440">Completed Rate</text>
</svg>
