<svg xmlns="http://www.w3.org/2000/svg" width="1080" height="610" viewBox="0 0 1080 610">
<rect width="100%" height="100%" fill="#ffffff"/>
<rect x="0" y="0" width="100%" height="56" fill="#eef6ff"/>
<text x="96" y="34" font-size="24" font-family="Arial, sans-serif" fill="#1b2a41">Virtual Pool Scaling: Reactive vs Predictive</text>
<text x="96" y="54" font-size="13" font-family="Arial, sans-serif" fill="#415a77">Predictive policy pre-warms pool before traffic peaks</text>
<line x1="96" y1="72.00" x2="860.00" y2="72.00" stroke="#e5e9f0" stroke-width="1"/>
<text x="84.00" y="76.00" text-anchor="end" font-size="12" font-family="Arial, sans-serif" fill="#4c566a">35.000</text>
<line x1="96" y1="165.20" x2="860.00" y2="165.20" stroke="#e5e9f0" stroke-width="1"/>
<text x="84.00" y="169.20" text-anchor="end" font-size="12" font-family="Arial, sans-serif" fill="#4c566a">28.000</text>
<line x1="96" y1="258.40" x2="860.00" y2="258.40" stroke="#e5e9f0" stroke-width="1"/>
<text x="84.00" y="262.40" text-anchor="end" font-size="12" font-family="Arial, sans-serif" fill="#4c566a">21.000</text>
<line x1="96" y1="351.60" x2="860.00" y2="351.60" stroke="#e5e9f0" stroke-width="1"/>
<text x="84.00" y="355.60" text-anchor="end" font-size="12" font-family="Arial, sans-serif" fill="#4c566a">14.000</text>
<line x1="96" y1="444.80" x2="860.00" y2="444.80" stroke="#e5e9f0" stroke-width="1"/>
<text x="84.00" y="448.80" text-anchor="end" font-size="12" font-family="Arial, sans-serif" fill="#4c566a">7.000</text>
<line x1="96" y1="538.00" x2="860.00" y2="538.00" stroke="#e5e9f0" stroke-width="1"/>
<text x="84.00" y="542.00" text-anchor="end" font-size="12" font-family="Arial, sans-serif" fill="#4c566a">0.000</text>
<line x1="96.00" y1="72" x2="96.00" y2="538.00" stroke="#f1f3f8" stroke-width="1"/>
<text x="96.00" y="560.00" text-anchor="middle" font-size="12" font-family="Arial, sans-serif" fill="#4c566a">0</text>
<line x1="191.77" y1="72" x2="191.77" y2="538.00" stroke="#f1f3f8" stroke-width="1"/>
<text x="191.77" y="560.00" text-anchor="middle" font-size="12" font-family="Arial, sans-serif" fill="#4c566a">45</text>
<line x1="287.53" y1="72" x2="287.53" y2="538.00" stroke="#f1f3f8" stroke-width="1"/>
<text x="287.53" y="560.00" text-anchor="middle" font-size="12" font-family="Arial, sans-serif" fill="#4c566a">90</text>
<line x1="383.30" y1="72" x2="383.30" y2="538.00" stroke="#f1f3f8" stroke-width="1"/>
<text x="383.30" y="560.00" text-anchor="middle" font-size="12" font-family="Arial, sans-serif" fill="#4c566a">135</text>
<line x1="479.06" y1="72" x2="479.06" y2="538.00" stroke="#f1f3f8" stroke-width="1"/>
<text x="479.06" y="560.00" text-anchor="middle" font-size="12" font-family="Arial, sans-serif" fill="#4c566a">180</text>
<line x1="574.83" y1="72" x2="574.83" y2="538.00" stroke="#f1f3f8" stroke-width="1"/>
<text x="574.83" y="560.00" text-anchor="middle" font-size="12" font-family="Arial, sans-serif" fill="#4c566a">225</text>
<line x1="670.60" y1="72" x2="670.60" y2="538.00" stroke="#f1f3f8" stroke-width="1"/>
<text x="670.60" y="560.00" text-anchor="middle" font-size="12" font-family="Arial, sans-serif" fill="#4c566a">270</text>
<line x1="766.36" y1="72" x2="766.36" y2="538.00" stroke="#f1f3f8" stroke-width="1"/>
<text x="766.36" y="560.00" text-anchor="middle" font-size="12" font-family="Arial, sans-serif" fill="#4c566a">315</text>
<line x1="860.00" y1="72" x2="860.00" y2="538.00" stroke="#f1f3f8" stroke-width="1"/>
<text x="860.00" y="560.00" text-anchor="middle" font-size="12" font-family="Arial, sans-serif" fill="#4c566a">359</text>
<line x1="96" y1="538.00" x2="860.00" y2="538.00" stroke="#2e3440" stroke-width="1.5"/>
<line x1="96" y1="72" x2="96" y2="538.00" stroke="#2e3440" stroke-width="1.5"/>
<text x="478.00" y="590.00" text-anchor="middle" font-size="13" font-family="Arial, sans-serif" fill="#2e3440">Minute</text>
<text x="20" y="305.00" transform="rotate(-90 20 305.00)" text-anchor="middle" font-size="13" font-family="Arial, sans-serif" fill="#2e3440">Virtual Pool Count</text>
<polyline points="96.00,231.77 98.13,245.09 100.26,218.46 102.38,231.77 104.51,231.77 106.64,245.09 108.77,218.46 110.90,205.14 113.03,191.83 115.15,205.14 117.28,191.83 119.41,205.14 121.54,191.83 123.67,178.51 125.79,165.20 127.92,218.46 130.05,165.20 132.18,178.51 134.31,178.51 136.43,165.20 138.56,165.20 140.69,138.57 142.82,138.57 144.95,151.89 147.08,151.89 149.20,138.57 151.33,138.57 153.46,111.94 155.59,125.26 157.72,125.26 159.84,125.26 161.97,85.31 164.10,85.31 166.23,111.94 168.36,111.94 170.48,138.57 172.61,98.63 174.74,98.63 176.87,98.63 179.00,98.63 181.13,85.31 183.25,85.31 185.38,85.31 187.51,111.94 189.64,72.00 191.77,85.31 193.89,72.00 196.02,72.00 198.15,85.31 200.28,98.63 202.41,98.63 204.53,72.00 206.66,98.63 208.79,85.31 210.92,72.00 213.05,98.63 215.18,85.31 217.30,85.31 219.43,98.63 221.56,111.94 223.69,72.00 225.82,72.00 227.94,98.63 230.07,85.31 232.20,125.26 234.33,85.31 236.46,98.63 238.58,111.94 240.71,111.94 242.84,125.26 244.97,111.94 247.10,111.94 249.23,125.26 251.35,125.26 253.48,125.26 255.61,138.57 257.74,98.63 259.87,111.94 261.99,138.57 264.12,125.26 266.25,125.26 268.38,165.20 270.51,138.57 272.64,125.26 274.76,138.57 276.89,165.20 279.02,125.26 281.15,165.20 283.28,125.26 285.40,151.89 287.53,165.20 289.66,125.26 291.79,151.89 293.92,151.89 296.04,125.26 298.17,151.89 300.30,138.57 302.43,138.57 304.56,138.57 306.69,151.89 308.81,138.57 310.94,125.26 313.07,138.57 315.20,138.57 317.33,138.57 319.45,125.26 321.58,111.94 323.71,125.26 325.84,111.94 327.97,125.26 330.09,98.63 332.22,98.63 334.35,111.94 336.48,85.31 338.61,111.94 340.74,138.57 342.86,85.31 344.99,85.31 347.12,85.31 349.25,98.63 351.38,98.63 353.50,98.63 355.63,98.63 357.76,85.31 359.89,111.94 362.02,98.63 364.14,111.94 366.27,98.63 368.40,125.26 370.53,98.63 372.66,98.63 374.79,111.94 376.91,111.94 379.04,111.94 381.17,125.26 383.30,111.94 385.43,111.94 387.55,165.20 389.68,151.89 391.81,151.89 393.94,125.26 396.07,151.89 398.19,165.20 400.32,178.51 402.45,178.51 404.58,165.20 406.71,191.83 408.84,178.51 410.96,178.51 413.09,205.14 415.22,191.83 417.35,205.14 419.48,205.14 421.60,218.46 423.73,245.09 425.86,231.77 427.99,245.09 430.12,231.77 432.25,271.71 434.37,231.77 436.50,258.40 438.63,258.40 440.76,231.77 442.89,258.40 445.01,231.77 447.14,245.09 449.27,258.40 451.40,218.46 453.53,245.09 455.65,258.40 457.78,258.40 459.91,231.77 462.04,271.71 464.17,245.09 466.30,218.46 468.42,258.40 470.55,271.71 472.68,258.40 474.81,231.77 476.94,258.40 479.06,271.71 481.19,271.71 483.32,218.46 485.45,231.77 487.58,231.77 489.70,231.77 491.83,218.46 493.96,218.46 496.09,231.77 498.22,218.46 500.35,231.77 502.47,205.14 504.60,218.46 506.73,205.14 508.86,218.46 510.99,205.14 513.11,205.14 515.24,191.83 517.37,178.51 519.50,205.14 521.63,205.14 523.75,205.14 525.88,165.20 528.01,191.83 530.14,205.14 532.27,178.51 534.40,191.83 536.52,165.20 538.65,205.14 540.78,178.51 542.91,191.83 545.04,191.83 547.16,151.89 549.29,191.83 551.42,165.20 553.55,178.51 555.68,205.14 557.81,178.51 559.93,191.83 562.06,178.51 564.19,165.20 566.32,165.20 568.45,165.20 570.57,191.83 572.70,178.51 574.83,191.83 576.96,191.83 579.09,151.89 581.21,191.83 583.34,151.89 585.47,165.20 587.60,178.51 589.73,178.51 591.86,191.83 593.98,205.14 596.11,178.51 598.24,165.20 600.37,178.51 602.50,165.20 604.62,151.89 606.75,151.89 608.88,165.20 611.01,165.20 613.14,151.89 615.26,151.89 617.39,178.51 619.52,151.89 621.65,138.57 623.78,151.89 625.91,151.89 628.03,151.89 630.16,138.57 632.29,138.57 634.42,138.57 636.55,111.94 638.67,138.57 640.80,125.26 642.93,111.94 645.06,125.26 647.19,125.26 649.31,111.94 651.44,125.26 653.57,98.63 655.70,85.31 657.83,85.31 659.96,85.31 662.08,72.00 664.21,72.00 666.34,72.00 668.47,98.63 670.60,72.00 672.72,85.31 674.85,85.31 676.98,72.00 679.11,72.00 681.24,98.63 683.36,72.00 685.49,98.63 687.62,111.94 689.75,72.00 691.88,85.31 694.01,85.31 696.13,85.31 698.26,85.31 700.39,111.94 702.52,98.63 704.65,98.63 706.77,98.63 708.90,111.94 711.03,138.57 713.16,125.26 715.29,111.94 717.42,138.57 719.54,151.89 721.67,165.20 723.80,151.89 725.93,151.89 728.06,178.51 730.18,178.51 732.31,191.83 734.44,205.14 736.57,205.14 738.70,205.14 740.82,218.46 742.95,205.14 745.08,218.46 747.21,205.14 749.34,231.77 751.47,245.09 753.59,258.40 755.72,285.03 757.85,258.40 759.98,271.71 762.11,285.03 764.23,285.03 766.36,298.34 768.49,298.34 770.62,298.34 772.75,324.97 774.87,324.97 777.00,324.97 779.13,338.29 781.26,324.97 783.39,298.34 785.52,338.29 787.64,338.29 789.77,351.60 791.90,324.97 794.03,338.29 796.16,351.60 798.28,338.29 800.41,324.97 802.54,351.60 804.67,324.97 806.80,324.97 808.92,338.29 811.05,351.60 813.18,338.29 815.31,311.66 817.44,351.60 819.57,324.97 821.69,324.97 823.82,311.66 825.95,298.34 828.08,311.66 830.21,311.66 832.33,324.97 834.46,311.66 836.59,285.03 838.72,298.34 840.85,298.34 842.97,285.03 845.10,285.03 847.23,271.71 849.36,271.71 851.49,285.03 853.62,285.03 855.74,258.40 857.87,258.40 860.00,245.09" fill="none" stroke="#a3a3a3" stroke-width="2" stroke-dasharray="6 4"/>
<polyline points="96.00,404.86 98.13,404.86 100.26,404.86 102.38,404.86 104.51,404.86 106.64,404.86 108.77,404.86 110.90,404.86 113.03,404.86 115.15,404.86 117.28,298.34 119.41,298.34 121.54,298.34 123.67,298.34 125.79,298.34 127.92,298.34 130.05,298.34 132.18,298.34 134.31,298.34 136.43,298.34 138.56,191.83 140.69,191.83 142.82,191.83 144.95,191.83 147.08,191.83 149.20,191.83 151.33,191.83 153.46,191.83 155.59,191.83 157.72,191.83 159.84,165.20 161.97,165.20 164.10,165.20 166.23,165.20 168.36,165.20 170.48,165.20 172.61,165.20 174.74,165.20 176.87,165.20 179.00,165.20 181.13,125.26 183.25,125.26 185.38,125.26 187.51,125.26 189.64,125.26 191.77,125.26 193.89,125.26 196.02,125.26 198.15,125.26 200.28,125.26 202.41,85.31 204.53,85.31 206.66,85.31 208.79,85.31 210.92,85.31 213.05,85.31 215.18,85.31 217.30,85.31 219.43,85.31 221.56,85.31 223.69,85.31 225.82,85.31 227.94,85.31 230.07,85.31 232.20,85.31 234.33,85.31 236.46,85.31 238.58,85.31 240.71,85.31 242.84,85.31 244.97,85.31 247.10,85.31 249.23,85.31 251.35,85.31 253.48,85.31 255.61,85.31 257.74,85.31 259.87,85.31 261.99,85.31 264.12,85.31 266.25,85.31 268.38,85.31 270.51,85.31 272.64,85.31 274.76,85.31 276.89,85.31 279.02,85.31 281.15,85.31 283.28,85.31 285.40,85.31 287.53,85.31 289.66,85.31 291.79,85.31 293.92,85.31 296.04,85.31 298.17,85.31 300.30,85.31 302.43,85.31 304.56,85.31 306.69,85.31 308.81,85.31 310.94,85.31 313.07,85.31 315.20,85.31 317.33,85.31 319.45,85.31 321.58,85.31 323.71,85.31 325.84,85.31 327.97,85.31 330.09,85.31 332.22,85.31 334.35,85.31 336.48,85.31 338.61,85.31 340.74,85.31 342.86,85.31 344.99,85.31 347.12,85.31 349.25,85.31 351.38,85.31 353.50,85.31 355.63,85.31 357.76,85.31 359.89,85.31 362.02,85.31 364.14,85.31 366.27,85.31 368.40,85.31 370.53,85.31 372.66,85.31 374.79,85.31 376.91,85.31 379.04,85.31 381.17,85.31 383.30,85.31 385.43,85.31 387.55,85.31 389.68,85.31 391.81,85.31 393.94,85.31 396.07,85.31 398.19,85.31 400.32,85.31 402.45,85.31 404.58,85.31 406.71,85.31 408.84,85.31 410.96,85.31 413.09,85.31 415.22,85.31 417.35,85.31 419.48,85.31 421.60,85.31 423.73,85.31 425.86,85.31 427.99,85.31 430.12,85.31 432.25,85.31 434.37,85.31 436.50,85.31 438.63,85.31 440.76,85.31 442.89,85.31 445.01,85.31 447.14,85.31 449.27,85.31 451.40,85.31 453.53,85.31 455.65,85.31 457.78,85.31 459.91,151.89 462.04,151.89 464.17,151.89 466.30,151.89 468.42,151.89 470.55,151.89 472.68,151.89 474.81,151.89 476.94,151.89 479.06,151.89 481.19,151.89 483.32,151.89 485.45,151.89 487.58,151.89 489.70,151.89 491.83,151.89 493.96,151.89 496.09,151.89 498.22,151.89 500.35,151.89 502.47,151.89 504.60,151.89 506.73,151.89 508.86,151.89 510.99,151.89 513.11,151.89 515.24,151.89 517.37,151.89 519.50,151.89 521.63,151.89 523.75,151.89 525.88,151.89 528.01,151.89 530.14,151.89 532.27,151.89 534.40,151.89 536.52,151.89 538.65,151.89 540.78,151.89 542.91,151.89 545.04,151.89 547.16,151.89 549.29,151.89 551.42,151.89 553.55,151.89 555.68,151.89 557.81,151.89 559.93,151.89 562.06,151.89 564.19,151.89 566.32,151.89 568.45,151.89 570.57,151.89 572.70,151.89 574.83,151.89 576.96,151.89 579.09,151.89 581.21,151.89 583.34,151.89 585.47,151.89 587.60,151.89 589.73,151.89 591.86,151.89 593.98,151.89 596.11,151.89 598.24,151.89 600.37,151.89 602.50,151.89 604.62,151.89 606.75,151.89 608.88,151.89 611.01,151.89 613.14,151.89 615.26,151.89 617.39,151.89 619.52,151.89 621.65,151.89 623.78,151.89 625.91,151.89 628.03,151.89 630.16,151.89 632.29,151.89 634.42,151.89 636.55,151.89 638.67,151.89 640.80,151.89 642.93,138.57 645.06,138.57 647.19,138.57 649.31,138.57 651.44,138.57 653.57,138.57 655.70,138.57 657.83,138.57 659.96,138.57 662.08,138.57 664.21,111.94 666.34,111.94 668.47,111.94 670.60,111.94 672.72,111.94 674.85,111.94 676.98,111.94 679.11,111.94 681.24,111.94 683.36,111.94 685.49,72.00 687.62,72.00 689.75,72.00 691.88,72.00 694.01,72.00 696.13,72.00 698.26,72.00 700.39,72.00 702.52,72.00 704.65,72.00 706.77,72.00 708.90,72.00 711.03,72.00 713.16,72.00 715.29,72.00 717.42,72.00 719.54,72.00 721.67,72.00 723.80,72.00 725.93,72.00 728.06,72.00 730.18,72.00 732.31,72.00 734.44,72.00 736.57,72.00 738.70,72.00 740.82,72.00 742.95,72.00 745.08,72.00 747.21,72.00 749.34,72.00 751.47,72.00 753.59,72.00 755.72,72.00 757.85,72.00 759.98,72.00 762.11,72.00 764.23,72.00 766.36,72.00 768.49,72.00 770.62,72.00 772.75,111.94 774.87,111.94 777.00,111.94 779.13,111.94 781.26,111.94 783.39,111.94 785.52,111.94 787.64,111.94 789.77,111.94 791.90,111.94 794.03,111.94 796.16,111.94 798.28,111.94 800.41,111.94 802.54,111.94 804.67,111.94 806.80,111.94 808.92,111.94 811.05,111.94 813.18,111.94 815.31,111.94 817.44,111.94 819.57,111.94 821.69,111.94 823.82,111.94 825.95,111.94 828.08,111.94 830.21,111.94 832.33,111.94 834.46,111.94 836.59,218.46 838.72,218.46 840.85,218.46 842.97,218.46 845.10,218.46 847.23,218.46 849.36,218.46 851.49,218.46 853.62,218.46 855.74,218.46 857.87,218.46 860.00,218.46" fill="none" stroke="#d62728" stroke-width="2.8"/>
<circle cx="96.00" cy="404.86" r="3.2" fill="#d62728"/>
<circle cx="113.03" cy="404.86" r="3.2" fill="#d62728"/>
<circle cx="130.05" cy="298.34" r="3.2" fill="#d62728"/>
<circle cx="147.08" cy="191.83" r="3.2" fill="#d62728"/>
<circle cx="164.10" cy="165.20" r="3.2" fill="#d62728"/>
<circle cx="181.13" cy="125.26" r="3.2" fill="#d62728"/>
<circle cx="198.15" cy="125.26" r="3.2" fill="#d62728"/>
<circle cx="215.18" cy="85.31" r="3.2" fill="#d62728"/>
<circle cx="232.20" cy="85.31" r="3.2" fill="#d62728"/>
<circle cx="249.23" cy="85.31" r="3.2" fill="#d62728"/>
<circle cx="266.25" cy="85.31" r="3.2" fill="#d62728"/>
<circle cx="283.28" cy="85.31" r="3.2" fill="#d62728"/>
<circle cx="300.30" cy="85.31" r="3.2" fill="#d62728"/>
<circle cx="317.33" cy="85.31" r="3.2" fill="#d62728"/>
<circle cx="334.35" cy="85.31" r="3.2" fill="#d62728"/>
<circle cx="351.38" cy="85.31" r="3.2" fill="#d62728"/>
<circle cx="368.40" cy="85.31" r="3.2" fill="#d62728"/>
<circle cx="385.43" cy="85.31" r="3.2" fill="#d62728"/>
<circle cx="402.45" cy="85.31" r="3.2" fill="#d62728"/>
<circle cx="419.48" cy="85.31" r="3.2" fill="#d62728"/>
<circle cx="436.50" cy="85.31" r="3.2" fill="#d62728"/>
<circle cx="453.53" cy="85.31" r="3.2" fill="#d62728"/>
<circle cx="470.55" cy="151.89" r="3.2" fill="#d62728"/>
<circle cx="487.58" cy="151.89" r="3.2" fill="#d62728"/>
<circle cx="504.60" cy="151.89" r="3.2" fill="#d62728"/>
<circle cx="521.63" cy="151.89" r="3.2" fill="#d62728"/>
<circle cx="538.65" cy="151.89" r="3.2" fill="#d62728"/>
<circle cx="555.68" cy="151.89" r="3.2" fill="#d62728"/>
<circle cx="572.70" cy="151.89" r="3.2" fill="#d62728"/>
<circle cx="589.73" cy="151.89" r="3.2" fill="#d62728"/>
<circle cx="606.75" cy="151.89" r="3.2" fill="#d62728"/>
<circle cx="623.78" cy="151.89" r="3.2" fill="#d62728"/>
<circle cx="640.80" cy="151.89" r="3.2" fill="#d62728"/>
<circle cx="657.83" cy="138.57" r="3.2" fill="#d62728"/>
<circle cx="674.85" cy="111.94" r="3.2" fill="#d62728"/>
<circle cx="691.88" cy="72.00" r="3.2" fill="#d62728"/>
<circle cx="708.90" cy="72.00" r="3.2" fill="#d62728"/>
<circle cx="725.93" cy="72.00" r="3.2" fill="#d62728"/>
<circle cx="742.95" cy="72.00" r="3.2" fill="#d62728"/>
<circle cx="759.98" cy="72.00" r="3.2" fill="#d62728"/>
<circle cx="777.00" cy="111.94" r="3.2" fill="#d62728"/>
<circle cx="794.03" cy="111.94" r="3.2" fill="#d62728"/>
<circle cx="811.05" cy="111.94" r="3.2" fill="#d62728"/>
<circle cx="828.08" cy="111.94" r="3.2" fill="#d62728"/>
<circle cx="845.10" cy="218.46" r="3.2" fill="#d62728"/>
<circle cx="860.00" cy="218.46" r="3.2" fill="#d62728"/>
<polyline points="96.00,404.86 98.13,404.86 100.26,404.86 102.38,404.86 104.51,404.86 106.64,404.86 108.77,404.86 110.90,404.86 113.03,404.86 115.15,404.86 117.28,298.34 119.41,298.34 121.54,298.34 123.67,298.34 125.79,298.34 127.92,298.34 130.05,298.34 132.18,298.34 134.31,298.34 136.43,298.34 138.56,191.83 140.69,191.83 142.82,191.83 144.95,191.83 147.08,191.83 149.20,191.83 151.33,191.83 153.46,191.83 155.59,191.83 157.72,191.83 159.84,98.63 161.97,98.63 164.10,98.63 166.23,98.63 168.36,98.63 170.48,98.63 172.61,98.63 174.74,98.63 176.87,98.63 179.00,98.63 181.13,98.63 183.25,98.63 185.38,98.63 187.51,98.63 189.64,98.63 191.77,98.63 193.89,85.31 196.02,85.31 198.15,85.31 200.28,85.31 202.41,85.31 204.53,85.31 206.66,85.31 208.79,85.31 210.92,85.31 213.05,85.31 215.18,85.31 217.30,85.31 219.43,85.31 221.56,85.31 223.69,85.31 225.82,85.31 227.94,85.31 230.07,85.31 232.20,85.31 234.33,85.31 236.46,85.31 238.58,85.31 240.71,85.31 242.84,85.31 244.97,85.31 247.10,85.31 249.23,85.31 251.35,85.31 253.48,85.31 255.61,85.31 257.74,85.31 259.87,85.31 261.99,85.31 264.12,85.31 266.25,85.31 268.38,85.31 270.51,85.31 272.64,85.31 274.76,85.31 276.89,85.31 279.02,85.31 281.15,85.31 283.28,85.31 285.40,85.31 287.53,85.31 289.66,85.31 291.79,85.31 293.92,85.31 296.04,85.31 298.17,85.31 300.30,85.31 302.43,85.31 304.56,85.31 306.69,85.31 308.81,85.31 310.94,85.31 313.07,85.31 315.20,85.31 317.33,85.31 319.45,85.31 321.58,85.31 323.71,85.31 325.84,85.31 327.97,85.31 330.09,85.31 332.22,85.31 334.35,85.31 336.48,85.31 338.61,85.31 340.74,85.31 342.86,85.31 344.99,85.31 347.12,85.31 349.25,85.31 351.38,85.31 353.50,85.31 355.63,85.31 357.76,85.31 359.89,85.31 362.02,85.31 364.14,85.31 366.27,85.31 368.40,85.31 370.53,85.31 372.66,85.31 374.79,85.31 376.91,85.31 379.04,85.31 381.17,85.31 383.30,85.31 385.43,85.31 387.55,85.31 389.68,85.31 391.81,85.31 393.94,85.31 396.07,85.31 398.19,85.31 400.32,85.31 402.45,85.31 404.58,85.31 406.71,85.31 408.84,85.31 410.96,85.31 413.09,85.31 415.22,85.31 417.35,85.31 419.48,85.31 421.60,85.31 423.73,85.31 425.86,85.31 427.99,85.31 430.12,85.31 432.25,85.31 434.37,85.31 436.50,85.31 438.63,85.31 440.76,85.31 442.89,85.31 445.01,85.31 447.14,85.31 449.27,85.31 451.40,85.31 453.53,85.31 455.65,85.31 457.78,85.31 459.91,151.89 462.04,151.89 464.17,151.89 466.30,151.89 468.42,151.89 470.55,151.89 472.68,151.89 474.81,151.89 476.94,151.89 479.06,151.89 481.19,151.89 483.32,151.89 485.45,151.89 487.58,151.89 489.70,151.89 491.83,151.89 493.96,151.89 496.09,151.89 498.22,151.89 500.35,151.89 502.47,151.89 504.60,151.89 506.73,151.89 508.86,151.89 510.99,151.89 513.11,151.89 515.24,151.89 517.37,151.89 519.50,151.89 521.63,151.89 523.75,151.89 525.88,151.89 528.01,151.89 530.14,151.89 532.27,151.89 534.40,151.89 536.52,151.89 538.65,151.89 540.78,151.89 542.91,151.89 545.04,151.89 547.16,151.89 549.29,151.89 551.42,151.89 553.55,151.89 555.68,151.89 557.81,151.89 559.93,151.89 562.06,151.89 564.19,151.89 566.32,151.89 568.45,151.89 570.57,151.89 572.70,151.89 574.83,151.89 576.96,151.89 579.09,151.89 581.21,151.89 583.34,151.89 585.47,151.89 587.60,151.89 589.73,151.89 591.86,151.89 593.98,151.89 596.11,151.89 598.24,151.89 600.37,151.89 602.50,151.89 604.62,151.89 606.75,151.89 608.88,151.89 611.01,151.89 613.14,151.89 615.26,151.89 617.39,151.89 619.52,151.89 621.65,151.89 623.78,138.57 625.91,138.57 628.03,138.57 630.16,138.57 632.29,138.57 634.42,138.57 636.55,138.57 638.67,138.57 640.80,138.57 642.93,138.57 645.06,125.26 647.19,125.26 649.31,125.26 651.44,125.26 653.57,125.26 655.70,125.26 657.83,125.26 659.96,125.26 662.08,125.26 664.21,125.26 666.34,85.31 668.47,85.31 670.60,85.31 672.72,85.31 674.85,85.31 676.98,85.31 679.11,85.31 681.24,85.31 683.36,85.31 685.49,85.31 687.62,85.31 689.75,85.31 691.88,85.31 694.01,85.31 696.13,85.31 698.26,85.31 700.39,85.31 702.52,85.31 704.65,85.31 706.77,85.31 708.90,85.31 711.03,85.31 713.16,85.31 715.29,85.31 717.42,85.31 719.54,85.31 721.67,85.31 723.80,85.31 725.93,85.31 728.06,85.31 730.18,85.31 732.31,85.31 734.44,85.31 736.57,85.31 738.70,85.31 740.82,85.31 742.95,85.31 745.08,85.31 747.21,85.31 749.34,85.31 751.47,85.31 753.59,85.31 755.72,85.31 757.85,85.31 759.98,85.31 762.11,85.31 764.23,85.31 766.36,85.31 768.49,85.31 770.62,85.31 772.75,85.31 774.87,85.31 777.00,85.31 779.13,85.31 781.26,138.57 783.39,138.57 785.52,138.57 787.64,138.57 789.77,138.57 791.90,138.57 794.03,138.57 796.16,138.57 798.28,138.57 800.41,138.57 802.54,138.57 804.67,138.57 806.80,138.57 808.92,138.57 811.05,138.57 813.18,138.57 815.31,138.57 817.44,138.57 819.57,138.57 821.69,138.57 823.82,138.57 825.95,138.57 828.08,138.57 830.21,138.57 832.33,138.57 834.46,138.57 836.59,138.57 838.72,138.57 840.85,138.57 842.97,138.57 845.10,138.57 847.23,138.57 849.36,138.57 851.49,138.57 853.62,138.57 855.74,138.57 857.87,138.57 860.00,138.57" fill="none" stroke="#2ca02c" stroke-width="2.8"/>
<circle cx="96.00" cy="404.86" r="3.2" fill="#2ca02c"/>
<circle cx="113.03" cy="404.86" r="3.2" fill="#2ca02c"/>
<circle cx="130.05" cy="298.34" r="3.2" fill="#2ca02c"/>
<circle cx="147.08" cy="191.83" r="3.2" fill="#2ca02c"/>
<circle cx="164.10" cy="98.63" r="3.2" fill="#2ca02c"/>
<circle cx="181.13" cy="98.63" r="3.2" fill="#2ca02c"/>
<circle cx="198.15" cy="85.31" r="3.2" fill="#2ca02c"/>
<circle cx="215.18" cy="85.31" r="3.2" fill="#2ca02c"/>
<circle cx="232.20" cy="85.31" r="3.2" fill="#2ca02c"/>
<circle cx="249.23" cy="85.31" r="3.2" fill="#2ca02c"/>
<circle cx="266.25" cy="85.31" r="3.2" fill="#2ca02c"/>
<circle cx="283.28" cy="85.31" r="3.2" fill="#2ca02c"/>
<circle cx="300.30" cy="85.31" r="3.2" fill="#2ca02c"/>
<circle cx="317.33" cy="85.31" r="3.2" fill="#2ca02c"/>
<circle cx="334.35" cy="85.31" r="3.2" fill="#2ca02c"/>
<circle cx="351.38" cy="85.31" r="3.2" fill="#2ca02c"/>
<circle cx="368.40" cy="85.31" r="3.2" fill="#2ca02c"/>
<circle cx="385.43" cy="85.31" r="3.2" fill="#2ca02c"/>
<circle cx="402.45" cy="85.31" r="3.2" fill="#2ca02c"/>
<circle cx="419.48" cy="85.31" r="3.2" fill="#2ca02c"/>
<circle cx="436.50" cy="85.31" r="3.2" fill="#2ca02c"/>
<circle cx="453.53" cy="85.31" r="3.2" fill="#2ca02c"/>
<circle cx="470.55" cy="151.89" r="3.2" fill="#2ca02c"/>
<circle cx="487.58" cy="151.89" r="3.2" fill="#2ca02c"/>
<circle cx="504.60" cy="151.89" r="3.2" fill="#2ca02c"/>
<circle cx="521.63" cy="151.89" r="3.2" fill="#2ca02c"/>
<circle cx="538.65" cy="151.89" r="3.2" fill="#2ca02c"/>
<circle cx="555.68" cy="151.89" r="3.2" fill="#2ca02c"/>
<circle cx="572.70" cy="151.89" r="3.2" fill="#2ca02c"/>
<circle cx="589.73" cy="151.89" r="3.2" fill="#2ca02c"/>
<circle cx="606.75" cy="151.89" r="3.2" fill="#2ca02c"/>
<circle cx="623.78" cy="138.57" r="3.2" fill="#2ca02c"/>
<circle cx="640.80" cy="138.57" r="3.2" fill="#2ca02c"/>
<circle cx="657.83" cy="125.26" r="3.2" fill="#2ca02c"/>
<circle cx="674.85" cy="85.31" r="3.2" fill="#2ca02c"/>
<circle cx="691.88" cy="85.31" r="3.2" fill="#2ca02c"/>
<circle cx="708.90" cy="85.31" r="3.2" fill="#2ca02c"/>
<circle cx="725.93" cy="85.31" r="3.2" fill="#2ca02c"/>
<circle cx="742.95" cy="85.31" r="3.2" fill="#2ca02c"/>
<circle cx="759.98" cy="85.31" r="3.2" fill="#2ca02c"/>
<circle cx="777.00" cy="85.31" r="3.2" fill="#2ca02c"/>
<circle cx="794.03" cy="138.57" r="3.2" fill="#2ca02c"/>
<circle cx="811.05" cy="138.57" r="3.2" fill="#2ca02c"/>
<circle cx="828.08" cy="138.57" r="3.2" fill="#2ca02c"/>
<circle cx="845.10" cy="138.57" r="3.2" fill="#2ca02c"/>
<circle cx="860.00" cy="138.57" r="3.2" fill="#2ca02c"/>
<text x="878" y="78" font-size="12" font-family="Arial, sans-serif" fill="#1f2937">Series</text>
<line x1="878" y1="84" x2="900" y2="84" stroke="#a3a3a3" stroke-width="2" stroke-dasharray="6 4"/>
<text x="908" y="88" font-size="12" font-family="Arial, sans-serif" fill="#2e3440">required now</text>
<line x1="878" y1="106" x2="900" y2="106" stroke="#d62728" stroke-width="3" />
<text x="908" y="110" font-size="12" font-family="Arial, sans-serif" fill="#2e3440">reactive pool</text>
<line x1="878" y1="128" x2="900" y2="128" stroke="#2ca02c" stroke-width="3" />
<text x="908" y="132" font-size="12" font-family="Arial, sans-serif" fill="#2e3440">predictive pool</text>
</svg>
