<svg xmlns="http://www.w3.org/2000/svg" width="1080" height="610" viewBox="0 0 1080 610">
<rect width="100%" height="100%" fill="#ffffff"/>
<rect x="0" y="0" width="100%" height="56" fill="#eef6ff"/>
<text x="96" y="34" font-size="24" font-family="Arial, sans-serif" fill="#1b2a41">Cumulative Create Failures</text>
<text x="96" y="54" font-size="13" font-family="Arial, sans-serif" fill="#415a77">Total expected create-stage failures over the simulation window</text>
<line x1="96" y1="72.00" x2="860.00" y2="72.00" stroke="#e5e9f0" stroke-width="1"/>
<text x="84.00" y="76.00" text-anchor="end" font-size="12" font-family="Arial, sans-serif" fill="#4c566a">542.844</text>
<line x1="96" y1="165.20" x2="860.00" y2="165.20" stroke="#e5e9f0" stroke-width="1"/>
<text x="84.00" y="169.20" text-anchor="end" font-size="12" font-family="Arial, sans-serif" fill="#4c566a">434.275</text>
<line x1="96" y1="258.40" x2="860.00" y2="258.40" stroke="#e5e9f0" stroke-width="1"/>
<text x="84.00" y="262.40" text-anchor="end" font-size="12" font-family="Arial, sans-serif" fill="#4c566a">325.706</text>
<line x1="96" y1="351.60" x2="860.00" y2="351.60" stroke="#e5e9f0" stroke-width="1"/>
<text x="84.00" y="355.60" text-anchor="end" font-size="12" font-family="Arial, sans-serif" fill="#4c566a">217.137</text>
<line x1="96" y1="444.80" x2="860.00" y2="444.80" stroke="#e5e9f0" stroke-width="1"/>
<text x="84.00" y="448.80" text-anchor="end" font-size="12" font-family="Arial, sans-serif" fill="#4c566a">108.569</text>
<line x1="96" y1="538.00" x2="860.00" y2="538.00" stroke="#e5e9f0" stroke-width="1"/>
<text x="84.00" y="542.00" text-anchor="end" font-size="12" font-family="Arial, sans-serif" fill="#4c566a">0.000</text>
<line x1="96.00" y1="72" x2="96.00" y2="538.00" stroke="#f1f3f8" stroke-width="1"/>
<text x="96.00" y="560.00" text-anchor="middle" font-size="12" font-family="Arial, sans-serif" fill="#4c566a">0</text>
<line x1="191.77" y1="72" x2="191.77" y2="538.00" stroke="#f1f3f8" stroke-width="1"/>
<text x="191.77" y="560.00" text-anchor="middle" font-size="12" font-family="Arial, sans-serif" fill="#4c566a">45</text>
<line x1="287.53" y1="72" x2="287.53" y2="538.00" stroke="#f1f3f8" stroke-width="1"/>
<text x="287.53" y="560.00" text-anchor="middle" font-size="12" font-family="Arial, sans-serif" fill="#4c566a">90</text>
<line x1="383.30" y1="72" x2="383.30" y2="538.00" stroke="#f1f3f8" stroke-width="1"/>
<text x="383.30" y="560.00" text-anchor="middle" font-size="12" font-family="Arial, sans-serif" fill="#4c566a">135</text>
<line x1="479.06" y1="72" x2="479.06" y2="538.00" stroke="#f1f3f8" stroke-width="1"/>
<text x="479.06" y="560.00" text-anchor="middle" font-size="12" font-family="Arial, sans-serif" fill="#4c566a">180</text>
<line x1="574.83" y1="72" x2="574.83" y2="538.00" stroke="#f1f3f8" stroke-width="1"/>
<text x="574.83" y="560.00" text-anchor="middle" font-size="12" font-family="Arial, sans-serif" fill="#4c566a">225</text>
<line x1="670.60" y1="72" x2="670.60" y2="538.00" stroke="#f1f3f8" stroke-width="1"/>
<text x="670.60" y="560.00" text-anchor="middle" font-size="12" font-family="Arial, sans-serif" fill="#4c566a">270</text>
<line x1="766.36" y1="72" x2="766.36" y2="538.00" stroke="#f1f3f8" stroke-width="1"/>
<text x="766.36" y="560.00" text-anchor="middle" font-size="12" font-family="Arial, sans-serif" fill="#4c566a">315</text>
<line x1="860.00" y1="72" x2="860.00" y2="538.00" stroke="#f1f3f8" stroke-width="1"/>
<text x="860.00" y="560.00" text-anchor="middle" font-size="12" font-family="Arial, sans-serif" fill="#4c566a">359</text>
<line x1="96" y1="538.00" x2="860.00" y2="538.00" stroke="#2e3440" stroke-width="1.5"/>
<line x1="96" y1="72" x2="96" y2="538.00" stroke="#2e3440" stroke-width="1.5"/>
<text x="478.00" y="590.00" text-anchor="middle" font-size="13" font-family="Arial, sans-serif" fill="#2e3440">Minute</text>
<text x="20" y="305.00" transform="rotate(-90 20 305.00)" text-anchor="middle" font-size="13" font-family="Arial, sans-serif" fill="#2e3440">Cumulative Failures</text>
<polyline points="96.00,531.22 98.13,525.10 100.26,517.86 102.38,510.71 104.51,503.63 106.64,497.10 108.77,489.46 110.90,481.39 113.03,472.30 115.15,464.15 117.28,459.87 119.41,455.71 121.54,451.20 123.67,445.95 125.79,440.31 127.92,436.99 130.05,431.46 132.18,426.38 134.31,420.89 136.43,415.05 138.56,412.77 140.69,409.85 142.82,406.69 144.95,404.19 147.08,401.49 149.20,398.49 151.33,395.47 153.46,391.37 155.59,387.71 157.72,384.23 159.84,381.56 161.97,377.28 164.10,372.93 166.23,369.91 168.36,366.60 170.48,364.15 172.61,360.41 174.74,356.80 176.87,352.74 179.00,349.11 181.13,346.29 183.25,343.28 185.38,340.03 187.51,338.10 189.64,334.66 191.77,331.69 193.89,327.99 196.02,324.37 198.15,321.28 200.28,318.93 202.41,317.64 204.53,315.51 206.66,313.90 208.79,312.04 210.92,309.54 213.05,307.94 215.18,306.11 217.30,304.43 219.43,302.99 221.56,301.73 223.69,299.50 225.82,297.20 227.94,295.70 230.07,293.99 232.20,293.04 234.33,291.13 236.46,289.76 238.58,288.51 240.71,287.37 242.84,286.55 244.97,285.34 247.10,284.16 249.23,283.21 251.35,282.35 253.48,281.41 255.61,280.73 257.74,279.41 259.87,278.42 261.99,277.84 264.12,277.10 266.25,276.36 268.38,276.12 270.51,275.49 272.64,274.71 274.76,274.21 276.89,273.89 279.02,273.11 281.15,272.80 283.28,271.94 285.40,271.45 287.53,271.20 289.66,270.41 291.79,270.06 293.92,269.64 296.04,268.81 298.17,268.39 300.30,267.87 302.43,267.37 304.56,266.76 306.69,266.40 308.81,265.73 310.94,264.98 313.07,264.43 315.20,263.90 317.33,263.33 319.45,262.61 321.58,261.60 323.71,260.68 325.84,259.65 327.97,258.94 330.09,257.60 332.22,256.05 334.35,254.86 336.48,253.14 338.61,252.11 340.74,251.42 342.86,249.71 344.99,247.88 347.12,246.23 349.25,244.58 351.38,242.98 353.50,241.37 355.63,239.73 357.76,237.96 359.89,236.83 362.02,235.41 364.14,234.28 366.27,232.93 368.40,231.97 370.53,230.41 372.66,228.96 374.79,227.96 376.91,226.89 379.04,225.69 381.17,224.88 383.30,223.85 385.43,222.84 387.55,222.52 389.68,222.12 391.81,221.70 393.94,220.94 396.07,220.48 398.19,220.16 400.32,220.00 402.45,219.79 404.58,219.50 406.71,219.41 408.84,219.28 410.96,219.15 413.09,219.09 415.22,218.99 417.35,218.92 419.48,218.88 421.60,218.86 423.73,218.86 425.86,218.84 427.99,218.84 430.12,218.83 432.25,218.83 434.37,218.81 436.50,218.81 438.63,218.81 440.76,218.79 442.89,218.79 445.01,218.78 447.14,218.77 449.27,218.77 451.40,218.75 453.53,218.75 455.65,218.75 457.78,218.74 459.91,218.61 462.04,218.59 464.17,218.52 466.30,218.22 468.42,218.17 470.55,218.15 472.68,218.09 474.81,217.95 476.94,217.92 479.06,217.90 481.19,217.88 483.32,217.57 485.45,217.42 487.58,217.29 489.70,217.15 491.83,216.83 493.96,216.63 496.09,216.47 498.22,216.26 500.35,216.09 502.47,215.72 504.60,215.52 506.73,215.10 508.86,214.89 510.99,214.50 513.11,214.17 515.24,213.67 517.37,212.79 519.50,212.30 521.63,211.97 523.75,211.54 525.88,210.49 528.01,209.99 530.14,209.51 532.27,208.56 534.40,207.87 536.52,206.81 538.65,206.34 540.78,205.38 542.91,204.77 545.04,204.26 547.16,202.84 549.29,202.27 551.42,201.25 553.55,200.27 555.68,199.93 557.81,199.06 559.93,198.35 562.06,197.60 564.19,196.57 566.32,195.58 568.45,194.28 570.57,193.61 572.70,192.78 574.83,192.25 576.96,191.60 579.09,190.15 581.21,189.55 583.34,188.20 585.47,187.14 587.60,186.24 589.73,185.28 591.86,184.73 593.98,184.26 596.11,183.36 598.24,182.18 600.37,181.37 602.50,180.11 604.62,178.43 606.75,176.93 608.88,175.81 611.01,174.69 613.14,173.22 615.26,171.79 617.39,170.81 619.52,169.48 621.65,167.56 623.78,166.06 625.91,164.73 628.03,163.40 630.16,161.47 632.29,159.52 634.42,157.66 636.55,154.97 638.67,153.09 640.80,150.52 642.93,147.92 645.06,145.93 647.19,143.84 649.31,141.60 651.44,139.61 653.57,136.57 655.70,133.26 657.83,129.94 659.96,126.41 662.08,122.66 664.21,119.48 666.34,116.36 668.47,114.16 670.60,111.14 672.72,108.39 674.85,105.74 676.98,102.81 679.11,99.54 681.24,97.22 683.36,94.27 685.49,93.13 687.62,92.24 689.75,90.37 691.88,88.72 694.01,87.05 696.13,85.52 698.26,84.06 700.39,83.23 702.52,82.05 704.65,80.95 706.77,79.68 708.90,78.84 711.03,78.34 713.16,77.59 715.29,76.81 717.42,76.29 719.54,76.04 721.67,75.83 723.80,75.47 725.93,75.11 728.06,75.02 730.18,74.88 732.31,74.83 734.44,74.79 736.57,74.75 738.70,74.72 740.82,74.71 742.95,74.67 745.08,74.66 747.21,74.64 749.34,74.63 751.47,74.63 753.59,74.63 755.72,74.63 757.85,74.63 759.98,74.63 762.11,74.63 764.23,74.63 766.36,74.63 768.49,74.63 770.62,74.63 772.75,74.63 774.87,74.63 777.00,74.63 779.13,74.63 781.26,74.63 783.39,74.62 785.52,74.62 787.64,74.62 789.77,74.62 791.90,74.62 794.03,74.62 796.16,74.62 798.28,74.62 800.41,74.62 802.54,74.62 804.67,74.62 806.80,74.62 808.92,74.62 811.05,74.62 813.18,74.62 815.31,74.62 817.44,74.62 819.57,74.62 821.69,74.62 823.82,74.62 825.95,74.62 828.08,74.62 830.21,74.62 832.33,74.62 834.46,74.62 836.59,74.47 838.72,74.40 840.85,74.30 842.97,74.15 845.10,74.05 847.23,73.80 849.36,73.53 851.49,73.42 853.62,73.27 855.74,72.89 857.87,72.56 860.00,72.00" fill="none" stroke="#d62728" stroke-width="2.8"/>
<circle cx="96.00" cy="531.22" r="3.2" fill="#d62728"/>
<circle cx="113.03" cy="472.30" r="3.2" fill="#d62728"/>
<circle cx="130.05" cy="431.46" r="3.2" fill="#d62728"/>
<circle cx="147.08" cy="401.49" r="3.2" fill="#d62728"/>
<circle cx="164.10" cy="372.93" r="3.2" fill="#d62728"/>
<circle cx="181.13" cy="346.29" r="3.2" fill="#d62728"/>
<circle cx="198.15" cy="321.28" r="3.2" fill="#d62728"/>
<circle cx="215.18" cy="306.11" r="3.2" fill="#d62728"/>
<circle cx="232.20" cy="293.04" r="3.2" fill="#d62728"/>
<circle cx="249.23" cy="283.21" r="3.2" fill="#d62728"/>
<circle cx="266.25" cy="276.36" r="3.2" fill="#d62728"/>
<circle cx="283.28" cy="271.94" r="3.2" fill="#d62728"/>
<circle cx="300.30" cy="267.87" r="3.2" fill="#d62728"/>
<circle cx="317.33" cy="263.33" r="3.2" fill="#d62728"/>
<circle cx="334.35" cy="254.86" r="3.2" fill="#d62728"/>
<circle cx="351.38" cy="242.98" r="3.2" fill="#d62728"/>
<circle cx="368.40" cy="231.97" r="3.2" fill="#d62728"/>
<circle cx="385.43" cy="222.84" r="3.2" fill="#d62728"/>
<circle cx="402.45" cy="219.79" r="3.2" fill="#d62728"/>
<circle cx="419.48" cy="218.88" r="3.2" fill="#d62728"/>
<circle cx="436.50" cy="218.81" r="3.2" fill="#d62728"/>
<circle cx="453.53" cy="218.75" r="3.2" fill="#d62728"/>
<circle cx="470.55" cy="218.15" r="3.2" fill="#d62728"/>
<circle cx="487.58" cy="217.29" r="3.2" fill="#d62728"/>
<circle cx="504.60" cy="215.52" r="3.2" fill="#d62728"/>
<circle cx="521.63" cy="211.97" r="3.2" fill="#d62728"/>
<circle cx="538.65" cy="206.34" r="3.2" fill="#d62728"/>
<circle cx="555.68" cy="199.93" r="3.2" fill="#d62728"/>
<circle cx="572.70" cy="192.78" r="3.2" fill="#d62728"/>
<circle cx="589.73" cy="185.28" r="3.2" fill="#d62728"/>
<circle cx="606.75" cy="176.93" r="3.2" fill="#d62728"/>
<circle cx="623.78" cy="166.06" r="3.2" fill="#d62728"/>
<circle cx="640.80" cy="150.52" r="3.2" fill="#d62728"/>
<circle cx="657.83" cy="129.94" r="3.2" fill="#d62728"/>
<circle cx="674.85" cy="105.74" r="3.2" fill="#d62728"/>
<circle cx="691.88" cy="88.72" r="3.2" fill="#d62728"/>
<circle cx="708.90" cy="78.84" r="3.2" fill="#d62728"/>
<circle cx="725.93" cy="75.11" r="3.2" fill="#d62728"/>
<circle cx="742.95" cy="74.67" r="3.2" fill="#d62728"/>
<circle cx="759.98" cy="74.63" r="3.2" fill="#d62728"/>
<circle cx="777.00" cy="74.63" r="3.2" fill="#d62728"/>
<circle cx="794.03" cy="74.62" r="3.2" fill="#d62728"/>
<circle cx="811.05" cy="74.62" r="3.2" fill="#d62728"/>
<circle cx="828.08" cy="74.62" r="3.2" fill="#d62728"/>
<circle cx="845.10" cy="74.05" r="3.2" fill="#d62728"/>
<circle cx="860.00" cy="72.00" r="3.2" fill="#d62728"/>
<polyline points="96.00,531.22 98.13,525.10 100.26,517.86 102.38,510.71 104.51,503.63 106.64,497.10 108.77,489.46 110.90,481.39 113.03,472.30 115.15,464.15 117.28,459.87 119.41,455.71 121.54,451.20 123.67,445.95 125.79,440.31 127.92,436.99 130.05,431.46 132.18,426.38 134.31,420.89 136.43,415.05 138.56,412.77 140.69,409.85 142.82,406.69 144.95,404.19 147.08,401.49 149.20,398.49 151.33,395.47 153.46,391.37 155.59,387.71 157.72,384.23 159.84,383.21 161.97,381.09 164.10,378.92 166.23,377.68 168.36,376.25 170.48,375.35 172.61,373.63 174.74,372.00 176.87,370.04 179.00,368.39 181.13,366.35 183.25,364.13 185.38,361.71 187.51,360.41 189.64,357.82 191.77,355.65 193.89,353.23 196.02,350.89 198.15,348.97 200.28,347.63 202.41,346.34 204.53,344.20 206.66,342.59 208.79,340.73 210.92,338.24 213.05,336.63 215.18,334.81 217.30,333.12 219.43,331.69 221.56,330.42 223.69,328.20 225.82,325.89 227.94,324.40 230.07,322.69 232.20,321.73 234.33,319.83 236.46,318.45 238.58,317.20 240.71,316.06 242.84,315.25 244.97,314.04 247.10,312.85 249.23,311.90 251.35,311.04 253.48,310.10 255.61,309.42 257.74,308.11 259.87,307.11 261.99,306.53 264.12,305.79 266.25,305.05 268.38,304.81 270.51,304.19 272.64,303.41 274.76,302.91 276.89,302.59 279.02,301.81 281.15,301.49 283.28,300.63 285.40,300.15 287.53,299.90 289.66,299.11 291.79,298.75 293.92,298.34 296.04,297.51 298.17,297.09 300.30,296.56 302.43,296.06 304.56,295.45 306.69,295.09 308.81,294.43 310.94,293.67 313.07,293.12 315.20,292.59 317.33,292.02 319.45,291.30 321.58,290.30 323.71,289.38 325.84,288.35 327.97,287.63 330.09,286.29 332.22,284.75 334.35,283.56 336.48,281.83 338.61,280.80 340.74,280.12 342.86,278.40 344.99,276.58 347.12,274.92 349.25,273.27 351.38,271.67 353.50,270.06 355.63,268.42 357.76,266.65 359.89,265.52 362.02,264.10 364.14,262.97 366.27,261.63 368.40,260.67 370.53,259.11 372.66,257.65 374.79,256.66 376.91,255.59 379.04,254.38 381.17,253.58 383.30,252.54 385.43,251.53 387.55,251.22 389.68,250.81 391.81,250.39 393.94,249.63 396.07,249.17 398.19,248.85 400.32,248.69 402.45,248.49 404.58,248.19 406.71,248.11 408.84,247.97 410.96,247.84 413.09,247.79 415.22,247.68 417.35,247.61 419.48,247.58 421.60,247.56 423.73,247.55 425.86,247.54 427.99,247.53 430.12,247.52 432.25,247.52 434.37,247.50 436.50,247.50 438.63,247.50 440.76,247.48 442.89,247.48 445.01,247.47 447.14,247.47 449.27,247.47 451.40,247.45 453.53,247.44 455.65,247.44 457.78,247.44 459.91,247.30 462.04,247.29 464.17,247.21 466.30,246.91 468.42,246.87 470.55,246.84 472.68,246.79 474.81,246.65 476.94,246.62 479.06,246.60 481.19,246.57 483.32,246.26 485.45,246.12 487.58,245.98 489.70,245.84 491.83,245.53 493.96,245.32 496.09,245.16 498.22,244.96 500.35,244.78 502.47,244.42 504.60,244.21 506.73,243.79 508.86,243.59 510.99,243.19 513.11,242.86 515.24,242.36 517.37,241.48 519.50,241.00 521.63,240.66 523.75,240.23 525.88,239.18 528.01,238.69 530.14,238.20 532.27,237.25 534.40,236.57 536.52,235.50 538.65,235.03 540.78,234.07 542.91,233.47 545.04,232.95 547.16,231.53 549.29,230.96 551.42,229.94 553.55,228.96 555.68,228.62 557.81,227.75 559.93,227.04 562.06,226.29 564.19,225.27 566.32,224.28 568.45,222.97 570.57,222.30 572.70,221.47 574.83,220.95 576.96,220.29 579.09,218.84 581.21,218.24 583.34,216.89 585.47,215.84 587.60,214.93 589.73,213.97 591.86,213.42 593.98,212.95 596.11,212.05 598.24,210.87 600.37,210.07 602.50,208.80 604.62,207.13 606.75,205.63 608.88,204.51 611.01,203.39 613.14,201.92 615.26,200.49 617.39,199.50 619.52,198.17 621.65,196.25 623.78,195.04 625.91,193.98 628.03,192.92 630.16,191.33 632.29,189.71 634.42,188.18 636.55,185.89 638.67,184.34 640.80,182.15 642.93,179.55 645.06,177.90 647.19,176.16 649.31,174.28 651.44,172.63 653.57,170.00 655.70,167.13 657.83,164.24 659.96,161.15 662.08,157.87 664.21,154.24 666.34,151.93 668.47,150.41 670.60,148.19 672.72,146.20 674.85,144.30 676.98,142.16 679.11,139.72 681.24,138.10 683.36,135.94 685.49,134.53 687.62,133.40 689.75,131.17 691.88,129.19 694.01,127.19 696.13,125.33 698.26,123.56 700.39,122.50 702.52,121.04 704.65,119.67 706.77,118.11 708.90,117.04 711.03,116.38 713.16,115.42 715.29,114.41 717.42,113.72 719.54,113.37 721.67,113.07 723.80,112.58 725.93,112.09 728.06,111.94 730.18,111.74 732.31,111.66 734.44,111.59 736.57,111.52 738.70,111.48 740.82,111.47 742.95,111.39 745.08,111.38 747.21,111.34 749.34,111.33 751.47,111.32 753.59,111.32 755.72,111.32 757.85,111.32 759.98,111.32 762.11,111.32 764.23,111.32 766.36,111.32 768.49,111.32 770.62,111.32 772.75,111.32 774.87,111.32 777.00,111.32 779.13,111.32 781.26,111.32 783.39,111.32 785.52,111.32 787.64,111.32 789.77,111.32 791.90,111.32 794.03,111.32 796.16,111.32 798.28,111.32 800.41,111.32 802.54,111.32 804.67,111.32 806.80,111.32 808.92,111.32 811.05,111.32 813.18,111.32 815.31,111.32 817.44,111.32 819.57,111.32 821.69,111.32 823.82,111.32 825.95,111.31 828.08,111.31 830.21,111.31 832.33,111.31 834.46,111.31 836.59,111.31 838.72,111.31 840.85,111.30 842.97,111.30 845.10,111.30 847.23,111.28 849.36,111.27 851.49,111.27 853.62,111.26 855.74,111.24 857.87,111.22 860.00,111.17" fill="none" stroke="#2ca02c" stroke-width="2.8"/>
<circle cx="96.00" cy="531.22" r="3.2" fill="#2ca02c"/>
<circle cx="113.03" cy="472.30" r="3.2" fill="#2ca02c"/>
<circle cx="130.05" cy="431.46" r="3.2" fill="#2ca02c"/>
<circle cx="147.08" cy="401.49" r="3.2" fill="#2ca02c"/>
<circle cx="164.10" cy="378.92" r="3.2" fill="#2ca02c"/>
<circle cx="181.13" cy="366.35" r="3.2" fill="#2ca02c"/>
<circle cx="198.15" cy="348.97" r="3.2" fill="#2ca02c"/>
<circle cx="215.18" cy="334.81" r="3.2" fill="#2ca02c"/>
<circle cx="232.20" cy="321.73" r="3.2" fill="#2ca02c"/>
<circle cx="249.23" cy="311.90" r="3.2" fill="#2ca02c"/>
<circle cx="266.25" cy="305.05" r="3.2" fill="#2ca02c"/>
<circle cx="283.28" cy="300.63" r="3.2" fill="#2ca02c"/>
<circle cx="300.30" cy="296.56" r="3.2" fill="#2ca02c"/>
<circle cx="317.33" cy="292.02" r="3.2" fill="#2ca02c"/>
<circle cx="334.35" cy="283.56" r="3.2" fill="#2ca02c"/>
<circle cx="351.38" cy="271.67" r="3.2" fill="#2ca02c"/>
<circle cx="368.40" cy="260.67" r="3.2" fill="#2ca02c"/>
<circle cx="385.43" cy="251.53" r="3.2" fill="#2ca02c"/>
<circle cx="402.45" cy="248.49" r="3.2" fill="#2ca02c"/>
<circle cx="419.48" cy="247.58" r="3.2" fill="#2ca02c"/>
<circle cx="436.50" cy="247.50" r="3.2" fill="#2ca02c"/>
<circle cx="453.53" cy="247.44" r="3.2" fill="#2ca02c"/>
<circle cx="470.55" cy="246.84" r="3.2" fill="#2ca02c"/>
<circle cx="487.58" cy="245.98" r="3.2" fill="#2ca02c"/>
<circle cx="504.60" cy="244.21" r="3.2" fill="#2ca02c"/>
<circle cx="521.63" cy="240.66" r="3.2" fill="#2ca02c"/>
<circle cx="538.65" cy="235.03" r="3.2" fill="#2ca02c"/>
<circle cx="555.68" cy="228.62" r="3.2" fill="#2ca02c"/>
<circle cx="572.70" cy="221.47" r="3.2" fill="#2ca02c"/>
<circle cx="589.73" cy="213.97" r="3.2" fill="#2ca02c"/>
<circle cx="606.75" cy="205.63" r="3.2" fill="#2ca02c"/>
<circle cx="623.78" cy="195.04" r="3.2" fill="#2ca02c"/>
<circle cx="640.80" cy="182.15" r="3.2" fill="#2ca02c"/>
<circle cx="657.83" cy="164.24" r="3.2" fill="#2ca02c"/>
<circle cx="674.85" cy="144.30" r="3.2" fill="#2ca02c"/>
<circle cx="691.88" cy="129.19" r="3.2" fill="#2ca02c"/>
<circle cx="708.90" cy="117.04" r="3.2" fill="#2ca02c"/>
<circle cx="725.93" cy="112.09" r="3.2" fill="#2ca02c"/>
<circle cx="742.95" cy="111.39" r="3.2" fill="#2ca02c"/>
<circle cx="759.98" cy="111.32" r="3.2" fill="#2ca02c"/>
<circle cx="777.00" cy="111.32" r="3.2" fill="#2ca02c"/>
<circle cx="794.03" cy="111.32" r="3.2" fill="#2ca02c"/>
<circle cx="811.05" cy="111.32" r="3.2" fill="#2ca02c"/>
<circle cx="828.08" cy="111.31" r="3.2" fill="#2ca02c"/>
<circle cx="845.10" cy="111.30" r="3.2" fill="#2ca02c"/>
<circle cx="860.00" cy="111.17" r="3.2" fill="#2ca02c"/>
<text x="878" y="78" font-size="12" font-family="Arial, sans-serif" fill="#1f2937">Series</text>
<line x1="878" y1="84" x2="900" y2="84" stroke="#d62728" stroke-width="3" />
<text x="908" y="88" font-size="12" font-family="Arial, sans-serif" fill="#2e3440">reactive cumulative</text>
<line x1="878" y1="106" x2="900" y2="106" stroke="#2ca02c" stroke-width="3" />
<text x="908" y="110" font-size="12" font-family="Arial, sans-serif" fill="#2e3440">predictive cumulative</text>
</svg>
