<svg xmlns="http://www.w3.org/2000/svg" width="1080" height="610" viewBox="0 0 1080 610">
<rect width="100%" height="100%" fill="#ffffff"/>
<rect x="0" y="0" width="100%" height="56" fill="#eef6ff"/>
<text x="96" y="34" font-size="24" font-family="Arial, sans-serif" fill="#1b2a41">Traffic vs Forecast (15/30 min Horizon)</text>
<text x="96" y="54" font-size="13" font-family="Arial, sans-serif" fill="#415a77">Actual tidal traffic and Holt/EWMA forecasts</text>
<line x1="96" y1="72.00" x2="860.00" y2="72.00" stroke="#e5e9f0" stroke-width="1"/>
<text x="84.00" y="76.00" text-anchor="end" font-size="12" font-family="Arial, sans-serif" fill="#4c566a">41.233</text>
<line x1="96" y1="165.20" x2="860.00" y2="165.20" stroke="#e5e9f0" stroke-width="1"/>
<text x="84.00" y="169.20" text-anchor="end" font-size="12" font-family="Arial, sans-serif" fill="#4c566a">32.987</text>
<line x1="96" y1="258.40" x2="860.00" y2="258.40" stroke="#e5e9f0" stroke-width="1"/>
<text x="84.00" y="262.40" text-anchor="end" font-size="12" font-family="Arial, sans-serif" fill="#4c566a">24.740</text>
<line x1="96" y1="351.60" x2="860.00" y2="351.60" stroke="#e5e9f0" stroke-width="1"/>
<text x="84.00" y="355.60" text-anchor="end" font-size="12" font-family="Arial, sans-serif" fill="#4c566a">16.493</text>
<line x1="96" y1="444.80" x2="860.00" y2="444.80" stroke="#e5e9f0" stroke-width="1"/>
<text x="84.00" y="448.80" text-anchor="end" font-size="12" font-family="Arial, sans-serif" fill="#4c566a">8.247</text>
<line x1="96" y1="538.00" x2="860.00" y2="538.00" stroke="#e5e9f0" stroke-width="1"/>
<text x="84.00" y="542.00" text-anchor="end" font-size="12" font-family="Arial, sans-serif" fill="#4c566a">0.000</text>
<line x1="96.00" y1="72" x2="96.00" y2="538.00" stroke="#f1f3f8" stroke-width="1"/>
<text x="96.00" y="560.00" text-anchor="middle" font-size="12" font-family="Arial, sans-serif" fill="#4c566a">0</text>
<line x1="191.77" y1="72" x2="191.77" y2="538.00" stroke="#f1f3f8" stroke-width="1"/>
<text x="191.77" y="560.00" text-anchor="middle" font-size="12" font-family="Arial, sans-serif" fill="#4c566a">45</text>
<line x1="287.53" y1="72" x2="287.53" y2="538.00" stroke="#f1f3f8" stroke-width="1"/>
<text x="287.53" y="560.00" text-anchor="middle" font-size="12" font-family="Arial, sans-serif" fill="#4c566a">90</text>
<line x1="383.30" y1="72" x2="383.30" y2="538.00" stroke="#f1f3f8" stroke-width="1"/>
<text x="383.30" y="560.00" text-anchor="middle" font-size="12" font-family="Arial, sans-serif" fill="#4c566a">135</text>
<line x1="479.06" y1="72" x2="479.06" y2="538.00" stroke="#f1f3f8" stroke-width="1"/>
<text x="479.06" y="560.00" text-anchor="middle" font-size="12" font-family="Arial, sans-serif" fill="#4c566a">180</text>
<line x1="574.83" y1="72" x2="574.83" y2="538.00" stroke="#f1f3f8" stroke-width="1"/>
<text x="574.83" y="560.00" text-anchor="middle" font-size="12" font-family="Arial, sans-serif" fill="#4c566a">225</text>
<line x1="670.60" y1="72" x2="670.60" y2="538.00" stroke="#f1f3f8" stroke-width="1"/>
<text x="670.60" y="560.00" text-anchor="middle" font-size="12" font-family="Arial, sans-serif" fill="#4c566a">270</text>
<line x1="766.36" y1="72" x2="766.36" y2="538.00" stroke="#f1f3f8" stroke-width="1"/>
<text x="766.36" y="560.00" text-anchor="middle" font-size="12" font-family="Arial, sans-serif" fill="#4c566a">315</text>
<line x1="860.00" y1="72" x2="860.00" y2="538.00" stroke="#f1f3f8" stroke-width="1"/>
<text x="860.00" y="560.00" text-anchor="middle" font-size="12" font-family="Arial, sans-serif" fill="#4c566a">359</text>
<line x1="96" y1="538.00" x2="860.00" y2="538.00" stroke="#2e3440" stroke-width="1.5"/>
<line x1="96" y1="72" x2="96" y2="538.00" stroke="#2e3440" stroke-width="1.5"/>
<text x="478.00" y="590.00" text-anchor="middle" font-size="13" font-family="Arial, sans-serif" fill="#2e3440">Minute</text>
<text x="20" y="305.00" transform="rotate(-90 20 305.00)" text-anchor="middle" font-size="13" font-family="Arial, sans-serif" fill="#2e3440">Attempts per Minute</text>
<polyline points="96.00,376.72 98.13,385.99 100.26,370.48 102.38,371.72 104.51,372.59 106.64,380.24 108.77,364.97 110.90,359.05 113.03,345.18 115.15,357.87 117.28,352.87 119.41,354.81 121.54,349.29 123.67,338.05 125.79,332.45 127.92,368.04 130.05,333.98 132.18,340.75 134.31,334.47 136.43,329.45 138.56,326.02 140.69,313.71 142.82,309.54 144.95,321.70 147.08,317.81 149.20,312.27 151.33,312.04 153.46,293.17 155.59,300.63 157.72,303.81 159.84,302.62 161.97,273.95 164.10,272.99 166.23,296.03 168.36,290.80 170.48,306.87 172.61,283.19 174.74,285.59 176.87,277.63 179.00,285.16 181.13,275.68 183.25,271.88 185.38,267.47 187.51,294.34 189.64,264.00 191.77,272.85 193.89,259.28 196.02,260.88 198.15,270.38 200.28,285.28 202.41,286.73 204.53,265.46 206.66,278.08 208.79,271.94 210.92,257.63 213.05,278.10 215.18,272.72 217.30,276.22 219.43,282.68 221.56,287.45 223.69,263.46 225.82,261.73 227.94,281.09 230.07,275.48 232.20,297.09 234.33,270.89 236.46,284.35 238.58,287.73 240.71,291.32 242.84,301.95 244.97,289.10 247.10,289.79 249.23,297.39 251.35,300.32 253.48,297.75 255.61,307.32 257.74,286.02 259.87,295.83 261.99,311.78 264.12,304.78 266.25,304.95 268.38,332.13 270.51,309.80 272.64,303.36 274.76,315.51 276.89,326.20 279.02,303.41 281.15,326.23 283.28,300.37 285.40,316.57 287.53,331.01 289.66,303.07 291.79,323.51 293.92,320.33 296.04,301.53 298.17,319.81 300.30,314.44 302.43,315.34 304.56,310.51 306.69,323.37 308.81,307.95 310.94,304.46 313.07,313.09 315.20,314.00 317.33,312.27 319.45,305.67 321.58,295.54 323.71,298.30 325.84,294.65 327.97,305.99 330.09,285.21 332.22,279.77 334.35,289.64 336.48,275.14 338.61,294.72 340.74,307.24 342.86,275.37 344.99,272.67 347.12,276.89 349.25,277.16 351.38,278.24 353.50,278.17 355.63,277.21 357.76,274.09 359.89,291.49 362.02,283.05 364.14,291.55 366.27,285.11 368.40,297.00 370.53,279.26 372.66,282.24 374.79,295.75 376.91,293.26 379.04,289.18 381.17,302.51 383.30,294.50 385.43,295.37 387.55,326.25 389.68,320.68 391.81,319.72 393.94,304.17 396.07,317.65 398.19,326.30 400.32,339.74 402.45,334.75 404.58,327.90 406.71,350.22 408.84,342.73 410.96,343.72 413.09,355.92 415.22,347.36 417.35,353.30 419.48,361.77 421.60,368.93 423.73,384.86 425.86,372.98 427.99,388.55 430.12,375.18 432.25,404.03 434.37,372.78 436.50,396.70 438.63,389.78 440.76,371.83 442.89,389.49 445.01,379.26 447.14,385.48 449.27,397.08 451.40,370.68 453.53,384.79 455.65,389.45 457.78,389.90 459.91,377.47 462.04,403.94 464.17,386.13 466.30,363.40 468.42,392.27 470.55,398.41 472.68,390.57 474.81,376.72 476.94,397.04 479.06,401.55 481.19,398.73 483.32,362.94 485.45,376.17 487.58,377.54 489.70,376.38 491.83,362.71 493.96,370.51 496.09,374.63 498.22,370.42 500.35,373.24 502.47,359.41 504.60,370.36 506.73,356.43 508.86,370.66 510.99,357.75 513.11,361.73 515.24,352.36 517.37,338.00 519.50,353.12 521.63,361.28 523.75,355.94 525.88,332.48 528.01,352.89 530.14,353.40 532.27,335.58 534.40,344.76 536.52,332.03 538.65,353.90 540.78,335.31 542.91,348.08 545.04,351.83 547.16,322.27 549.29,349.46 551.42,333.43 553.55,334.64 555.68,361.13 557.81,338.21 559.93,343.73 562.06,342.37 564.19,333.31 566.32,334.41 568.45,325.30 570.57,345.42 572.70,339.47 574.83,351.46 576.96,345.87 579.09,321.51 581.21,348.31 583.34,324.07 585.47,332.32 587.60,337.16 589.73,335.23 591.86,350.45 593.98,353.82 596.11,337.28 598.24,328.75 600.37,340.30 602.50,326.50 604.62,315.99 606.75,320.24 608.88,330.40 611.01,330.49 613.14,321.00 615.26,322.02 617.39,334.57 619.52,324.71 621.65,310.26 623.78,320.29 625.91,324.68 628.03,324.58 630.16,310.31 632.29,309.47 634.42,311.73 636.55,294.42 638.67,311.31 640.80,296.63 642.93,288.09 645.06,300.97 647.19,298.66 649.31,295.60 651.44,300.85 653.57,279.56 655.70,274.69 657.83,274.34 659.96,270.52 662.08,266.84 664.21,260.54 666.34,261.65 668.47,280.38 670.60,263.66 672.72,268.88 674.85,270.91 676.98,265.24 679.11,258.89 681.24,277.83 683.36,264.90 685.49,283.28 687.62,291.48 689.75,263.43 691.88,269.11 694.01,268.49 696.13,271.86 698.26,274.04 700.39,293.68 702.52,282.07 704.65,284.47 706.77,279.38 708.90,293.33 711.03,308.11 713.16,296.83 715.29,295.54 717.42,306.88 719.54,323.88 721.67,327.29 723.80,316.22 725.93,316.09 728.06,341.27 730.18,335.33 732.31,351.19 734.44,354.07 736.57,352.94 738.70,361.23 740.82,370.79 742.95,353.02 745.08,370.84 747.21,361.52 749.34,379.01 751.47,385.80 753.59,393.88 755.72,411.22 757.85,389.31 759.98,404.01 762.11,407.16 764.23,409.84 766.36,416.52 768.49,415.46 770.62,418.54 772.75,434.38 774.87,438.03 777.00,439.45 779.13,441.54 781.26,433.44 783.39,420.18 785.52,445.57 787.64,440.36 789.77,453.69 791.90,439.16 794.03,440.20 796.16,454.91 798.28,446.48 800.41,434.50 802.54,450.69 804.67,439.79 806.80,434.98 808.92,442.45 811.05,451.26 813.18,446.42 815.31,431.19 817.44,454.67 819.57,439.58 821.69,437.59 823.82,429.42 825.95,418.65 828.08,426.94 830.21,425.01 832.33,437.44 834.46,428.33 836.59,408.78 838.72,417.43 840.85,415.54 842.97,408.08 845.10,414.82 847.23,400.99 849.36,399.96 851.49,412.61 853.62,408.93 855.74,393.48 857.87,396.16 860.00,385.43" fill="none" stroke="#1f77b4" stroke-width="2.8"/>
<circle cx="96.00" cy="376.72" r="3.2" fill="#1f77b4"/>
<circle cx="113.03" cy="345.18" r="3.2" fill="#1f77b4"/>
<circle cx="130.05" cy="333.98" r="3.2" fill="#1f77b4"/>
<circle cx="147.08" cy="317.81" r="3.2" fill="#1f77b4"/>
<circle cx="164.10" cy="272.99" r="3.2" fill="#1f77b4"/>
<circle cx="181.13" cy="275.68" r="3.2" fill="#1f77b4"/>
<circle cx="198.15" cy="270.38" r="3.2" fill="#1f77b4"/>
<circle cx="215.18" cy="272.72" r="3.2" fill="#1f77b4"/>
<circle cx="232.20" cy="297.09" r="3.2" fill="#1f77b4"/>
<circle cx="249.23" cy="297.39" r="3.2" fill="#1f77b4"/>
<circle cx="266.25" cy="304.95" r="3.2" fill="#1f77b4"/>
<circle cx="283.28" cy="300.37" r="3.2" fill="#1f77b4"/>
<circle cx="300.30" cy="314.44" r="3.2" fill="#1f77b4"/>
<circle cx="317.33" cy="312.27" r="3.2" fill="#1f77b4"/>
<circle cx="334.35" cy="289.64" r="3.2" fill="#1f77b4"/>
<circle cx="351.38" cy="278.24" r="3.2" fill="#1f77b4"/>
<circle cx="368.40" cy="297.00" r="3.2" fill="#1f77b4"/>
<circle cx="385.43" cy="295.37" r="3.2" fill="#1f77b4"/>
<circle cx="402.45" cy="334.75" r="3.2" fill="#1f77b4"/>
<circle cx="419.48" cy="361.77" r="3.2" fill="#1f77b4"/>
<circle cx="436.50" cy="396.70" r="3.2" fill="#1f77b4"/>
<circle cx="453.53" cy="384.79" r="3.2" fill="#1f77b4"/>
<circle cx="470.55" cy="398.41" r="3.2" fill="#1f77b4"/>
<circle cx="487.58" cy="377.54" r="3.2" fill="#1f77b4"/>
<circle cx="504.60" cy="370.36" r="3.2" fill="#1f77b4"/>
<circle cx="521.63" cy="361.28" r="3.2" fill="#1f77b4"/>
<circle cx="538.65" cy="353.90" r="3.2" fill="#1f77b4"/>
<circle cx="555.68" cy="361.13" r="3.2" fill="#1f77b4"/>
<circle cx="572.70" cy="339.47" r="3.2" fill="#1f77b4"/>
<circle cx="589.73" cy="335.23" r="3.2" fill="#1f77b4"/>
<circle cx="606.75" cy="320.24" r="3.2" fill="#1f77b4"/>
<circle cx="623.78" cy="320.29" r="3.2" fill="#1f77b4"/>
<circle cx="640.80" cy="296.63" r="3.2" fill="#1f77b4"/>
<circle cx="657.83" cy="274.34" r="3.2" fill="#1f77b4"/>
<circle cx="674.85" cy="270.91" r="3.2" fill="#1f77b4"/>
<circle cx="691.88" cy="269.11" r="3.2" fill="#1f77b4"/>
<circle cx="708.90" cy="293.33" r="3.2" fill="#1f77b4"/>
<circle cx="725.93" cy="316.09" r="3.2" fill="#1f77b4"/>
<circle cx="742.95" cy="353.02" r="3.2" fill="#1f77b4"/>
<circle cx="759.98" cy="404.01" r="3.2" fill="#1f77b4"/>
<circle cx="777.00" cy="439.45" r="3.2" fill="#1f77b4"/>
<circle cx="794.03" cy="440.20" r="3.2" fill="#1f77b4"/>
<circle cx="811.05" cy="451.26" r="3.2" fill="#1f77b4"/>
<circle cx="828.08" cy="426.94" r="3.2" fill="#1f77b4"/>
<circle cx="845.10" cy="414.82" r="3.2" fill="#1f77b4"/>
<circle cx="860.00" cy="385.43" r="3.2" fill="#1f77b4"/>
<polyline points="96.00,515.72 98.13,524.99 100.26,492.63 102.38,465.69 104.51,443.63 106.64,437.72 108.77,403.80 110.90,370.92 113.03,327.56 115.15,325.21 117.28,318.19 119.41,320.29 121.54,315.14 123.67,296.13 125.79,279.21 127.92,333.67 130.05,310.92 132.18,311.04 134.31,303.05 136.43,292.63 138.56,283.92 140.69,261.72 142.82,246.20 144.95,262.95 147.08,271.06 149.20,270.39 151.33,273.12 153.46,246.28 155.59,247.19 157.72,257.55 159.84,265.45 161.97,224.98 164.10,204.01 166.23,236.35 168.36,251.32 170.48,290.33 172.61,274.56 174.74,270.17 176.87,255.55 179.00,261.57 181.13,251.11 183.25,240.73 185.38,229.92 187.51,271.95 189.64,247.24 191.77,249.18 193.89,229.49 196.02,223.27 198.15,238.77 200.28,275.44 202.41,299.99 204.53,277.38 206.66,284.46 208.79,277.72 210.92,249.28 213.05,267.87 215.18,270.49 217.30,278.06 219.43,293.15 221.56,309.05 223.69,276.14 225.82,253.09 227.94,272.97 230.07,275.76 232.20,313.65 234.33,290.22 236.46,297.62 238.58,306.49 240.71,316.07 242.84,337.42 244.97,325.23 247.10,316.29 249.23,321.63 251.35,327.63 253.48,324.49 255.61,336.49 257.74,305.23 259.87,301.96 261.99,326.35 264.12,327.51 266.25,326.56 268.38,369.86 270.51,354.28 272.64,330.70 274.76,335.14 276.89,354.01 279.02,324.34 281.15,343.70 283.28,310.03 285.40,316.91 287.53,345.12 289.66,313.35 291.79,328.41 293.92,331.40 296.04,300.61 298.17,313.55 300.30,312.55 302.43,313.64 304.56,306.29 306.69,323.99 308.81,308.30 310.94,293.31 313.07,300.06 315.20,306.59 317.33,308.09 319.45,298.23 321.58,276.11 323.71,269.55 325.84,262.03 327.97,279.47 330.09,256.90 332.22,237.04 334.35,245.69 336.48,230.05 338.61,257.66 340.74,297.81 342.86,268.35 344.99,247.32 347.12,244.33 349.25,245.79 351.38,251.09 353.50,256.32 355.63,259.59 357.76,257.73 359.89,287.24 362.02,290.54 364.14,306.10 366.27,303.08 368.40,319.80 370.53,297.78 372.66,288.46 374.79,305.22 376.91,309.97 379.04,304.47 381.17,322.39 383.30,317.66 385.43,314.43 387.55,362.83 389.68,378.48 391.81,381.07 393.94,351.31 396.07,352.73 398.19,365.14 400.32,391.66 402.45,394.29 404.58,379.31 406.71,403.80 408.84,400.92 410.96,396.02 413.09,409.28 415.22,398.11 417.35,397.34 419.48,407.44 421.60,421.49 423.73,451.97 425.86,444.06 427.99,459.67 430.12,440.28 432.25,472.04 434.37,432.24 436.50,444.36 438.63,435.76 440.76,396.74 442.89,401.68 445.01,386.34 447.14,387.29 449.27,407.19 451.40,373.53 453.53,377.47 455.65,388.19 457.78,395.28 459.91,378.06 462.04,412.49 464.17,401.83 466.30,356.13 468.42,378.74 470.55,403.31 472.68,403.96 474.81,379.96 476.94,399.90 479.06,409.55 481.19,415.31 483.32,365.53 485.45,356.17 487.58,354.17 489.70,354.93 491.83,334.99 493.96,336.67 496.09,343.38 498.22,348.40 500.35,353.90 502.47,341.27 504.60,348.27 506.73,333.79 508.86,345.79 510.99,345.77 513.11,340.13 515.24,331.72 517.37,307.29 519.50,315.16 521.63,333.04 523.75,335.87 525.88,308.33 528.01,323.92 530.14,333.07 532.27,315.35 534.40,319.04 536.52,301.93 538.65,326.52 540.78,317.49 542.91,329.24 545.04,335.54 547.16,303.84 549.29,326.92 551.42,316.10 553.55,316.28 555.68,344.88 557.81,334.90 559.93,333.60 562.06,333.36 564.19,318.00 566.32,311.14 568.45,295.53 570.57,320.75 572.70,318.61 574.83,339.25 576.96,339.35 579.09,308.52 581.21,327.62 583.34,309.29 585.47,308.41 587.60,310.54 589.73,315.66 591.86,336.20 593.98,349.90 596.11,341.06 598.24,319.54 600.37,323.40 602.50,308.76 604.62,287.41 606.75,276.57 608.88,288.90 611.01,302.87 613.14,296.24 615.26,300.44 617.39,312.14 619.52,313.03 621.65,293.86 623.78,297.22 625.91,308.19 628.03,311.21 630.16,296.53 632.29,289.27 634.42,289.17 636.55,267.17 638.67,281.32 640.80,266.83 642.93,254.42 645.06,269.33 647.19,274.24 649.31,276.17 651.44,291.94 653.57,266.13 655.70,247.89 657.83,243.13 659.96,239.55 662.08,229.90 664.21,227.75 666.34,223.33 668.47,256.12 670.60,257.04 672.72,258.22 674.85,271.15 676.98,268.87 679.11,256.21 681.24,281.11 683.36,275.61 685.49,297.40 687.62,319.00 689.75,296.27 691.88,283.85 694.01,276.50 696.13,278.99 698.26,282.56 700.39,309.89 702.52,308.28 704.65,307.34 706.77,300.31 708.90,311.94 711.03,339.48 713.16,331.98 715.29,324.23 717.42,334.76 719.54,356.03 721.67,375.39 723.80,367.73 725.93,350.01 728.06,372.61 730.18,375.30 732.31,392.72 734.44,401.95 736.57,400.24 738.70,404.56 740.82,413.83 742.95,394.75 745.08,398.31 747.21,387.18 749.34,397.69 751.47,412.82 753.59,422.86 755.72,449.77 757.85,433.64 759.98,435.83 762.11,435.91 764.23,438.34 766.36,440.66 768.49,437.54 770.62,442.38 772.75,457.07 774.87,466.86 777.00,466.49 779.13,469.20 781.26,455.73 783.39,428.54 785.52,441.04 787.64,438.93 789.77,458.99 791.90,444.73 794.03,436.76 796.16,452.47 798.28,445.46 800.41,426.35 802.54,436.78 804.67,428.56 806.80,419.72 808.92,420.09 811.05,437.39 813.18,436.16 815.31,423.08 817.44,435.89 819.57,432.85 821.69,423.68 823.82,404.88 825.95,387.03 828.08,385.16 830.21,386.84 832.33,408.34 834.46,403.29 836.59,382.25 838.72,382.39 840.85,381.93 842.97,371.44 845.10,384.11 847.23,368.42 849.36,357.71 851.49,380.19 853.62,388.42 855.74,371.96 857.87,365.65 860.00,356.37" fill="none" stroke="#ff7f0e" stroke-width="2" stroke-dasharray="6 4"/>
<polyline points="96.00,538.00 98.13,538.00 100.26,538.00 102.38,538.00 104.51,505.16 106.64,491.74 108.77,429.68 110.90,370.85 113.03,294.97 115.15,292.48 117.28,281.84 119.41,287.33 121.54,279.96 123.67,248.46 125.79,221.24 127.92,319.43 130.05,280.34 132.18,282.07 134.31,269.55 136.43,252.99 138.56,239.71 140.69,203.08 142.82,178.85 144.95,211.54 147.08,228.30 149.20,229.25 151.33,236.10 153.46,190.97 155.59,195.33 157.72,216.06 159.84,231.95 161.97,162.82 164.10,129.23 166.23,189.55 168.36,218.10 170.48,288.02 172.61,260.54 174.74,253.56 176.87,228.80 179.00,240.68 181.13,223.42 183.25,206.63 185.38,189.43 187.51,265.00 189.64,222.10 191.77,226.76 193.89,193.42 196.02,184.33 198.15,213.41 200.28,278.86 202.41,321.64 204.53,280.99 206.66,293.21 208.79,280.98 210.92,231.04 213.05,264.48 215.18,269.23 217.30,282.55 219.43,308.74 221.56,335.78 223.69,276.85 225.82,236.48 227.94,272.09 230.07,277.02 232.20,343.27 234.33,300.78 236.46,313.21 238.58,327.94 240.71,343.65 242.84,379.62 244.97,356.19 247.10,338.99 249.23,347.21 251.35,356.42 253.48,349.48 255.61,369.24 257.74,312.89 259.87,306.79 261.99,349.22 264.12,350.11 266.25,347.33 268.38,422.05 270.51,392.18 272.64,349.02 274.76,355.88 276.89,387.87 279.02,334.24 281.15,367.64 283.28,307.51 285.40,319.67 287.53,368.90 289.66,312.13 291.79,338.54 293.92,343.26 296.04,288.80 298.17,312.02 300.30,310.36 302.43,312.36 304.56,299.58 306.69,330.89 308.81,303.08 310.94,277.10 313.07,289.72 315.20,301.68 317.33,304.55 319.45,287.46 321.58,249.30 323.71,239.16 325.84,227.52 327.97,259.76 330.09,221.25 332.22,188.27 334.35,205.86 336.48,180.47 338.61,231.27 340.74,302.85 342.86,251.04 344.99,215.10 347.12,211.49 349.25,215.69 351.38,226.46 353.50,236.85 355.63,243.54 357.76,241.08 359.89,293.56 362.02,299.02 364.14,325.83 366.27,319.56 368.40,348.00 370.53,308.05 372.66,291.23 374.79,320.42 376.91,327.98 379.04,317.44 381.17,348.16 383.30,338.58 385.43,331.89 387.55,415.72 389.68,440.46 391.81,441.90 393.94,386.78 396.07,387.48 398.19,407.47 400.32,451.76 402.45,453.36 404.58,424.19 406.71,464.81 408.84,456.71 410.96,445.35 413.09,466.08 415.22,443.69 417.35,440.08 419.48,455.62 421.60,477.79 423.73,528.32 425.86,510.66 427.99,534.63 430.12,496.97 432.25,538.00 434.37,476.18 436.50,495.18 438.63,477.59 440.76,407.22 442.89,415.34 445.01,387.81 447.14,389.41 449.27,424.12 451.40,364.37 453.53,371.72 455.65,390.77 457.78,403.04 459.91,372.52 462.04,433.06 464.17,413.36 466.30,332.82 468.42,373.55 470.55,416.81 472.68,417.28 474.81,374.60 476.94,409.78 479.06,427.92 481.19,435.55 483.32,349.99 485.45,334.18 487.58,331.63 489.70,332.82 491.83,301.56 493.96,307.16 496.09,322.66 498.22,330.38 500.35,341.73 502.47,319.92 504.60,334.16 506.73,311.36 508.86,334.41 510.99,329.07 513.11,325.66 515.24,310.54 517.37,269.90 519.50,286.36 521.63,319.66 523.75,327.31 525.88,280.24 528.01,306.90 530.14,324.41 532.27,294.76 534.40,302.28 536.52,276.28 538.65,319.38 540.78,303.40 542.91,324.86 545.04,340.84 547.16,285.26 549.29,322.77 551.42,304.92 553.55,303.14 555.68,357.75 557.81,339.24 559.93,338.06 562.06,336.18 564.19,310.72 566.32,299.70 568.45,273.69 570.57,314.49 572.70,316.05 574.83,350.84 576.96,352.68 579.09,297.80 581.21,330.19 583.34,295.53 585.47,294.44 587.60,302.38 589.73,309.65 591.86,346.91 593.98,372.72 596.11,352.74 598.24,315.38 600.37,321.76 602.50,295.15 604.62,257.67 606.75,244.16 608.88,267.65 611.01,289.95 613.14,279.92 615.26,284.53 617.39,310.13 619.52,309.56 621.65,275.63 623.78,281.82 625.91,300.04 628.03,307.86 630.16,282.21 632.29,268.97 634.42,269.34 636.55,232.24 638.67,257.18 640.80,236.54 642.93,214.72 645.06,240.17 647.19,251.36 649.31,255.86 651.44,279.98 653.57,239.10 655.70,209.59 657.83,201.17 659.96,195.24 662.08,184.33 664.21,179.09 666.34,178.05 668.47,235.02 670.60,235.30 672.72,243.08 674.85,263.08 676.98,260.02 679.11,241.41 681.24,282.71 683.36,273.88 685.49,311.96 687.62,349.83 689.75,306.39 691.88,286.68 694.01,274.26 696.13,277.31 698.26,283.49 700.39,331.56 702.52,328.75 704.65,327.75 706.77,313.97 708.90,334.24 711.03,379.45 713.16,367.76 715.29,353.30 717.42,368.64 719.54,406.57 721.67,434.68 723.80,416.25 725.93,388.08 728.06,426.16 730.18,427.50 732.31,455.34 734.44,468.17 736.57,461.88 738.70,466.51 740.82,480.16 742.95,440.58 745.08,445.92 747.21,422.65 749.34,440.33 751.47,462.72 753.59,480.72 755.72,524.43 757.85,490.24 759.98,491.64 762.11,489.67 764.23,489.03 766.36,491.89 768.49,483.73 770.62,484.78 772.75,509.30 774.87,523.97 777.00,523.04 779.13,522.72 781.26,495.05 783.39,443.29 785.52,465.24 787.64,461.47 789.77,491.77 791.90,466.41 794.03,451.21 796.16,475.97 798.28,463.95 800.41,428.60 802.54,445.34 804.67,429.35 806.80,411.21 808.92,414.24 811.05,442.23 813.18,442.04 815.31,414.09 817.44,442.12 819.57,432.55 821.69,417.66 823.82,388.03 825.95,354.71 828.08,354.74 830.21,358.18 832.33,395.33 834.46,391.49 836.59,352.93 838.72,353.88 840.85,354.42 842.97,339.49 845.10,358.88 847.23,335.63 849.36,322.27 851.49,358.63 853.62,373.09 855.74,346.36 857.87,338.87 860.00,320.62" fill="none" stroke="#2ca02c" stroke-width="2" stroke-dasharray="6 4"/>
<text x="878" y="78" font-size="12" font-family="Arial, sans-serif" fill="#1f2937">Series</text>
<line x1="878" y1="84" x2="900" y2="84" stroke="#1f77b4" stroke-width="3" />
<text x="908" y="88" font-size="12" font-family="Arial, sans-serif" fill="#2e3440">actual attempts</text>
<line x1="878" y1="106" x2="900" y2="106" stroke="#ff7f0e" stroke-width="2" stroke-dasharray="6 4"/>
<text x="908" y="110" font-size="12" font-family="Arial, sans-serif" fill="#2e3440">forecast h15</text>
<line x1="878" y1="128" x2="900" y2="128" stroke="#2ca02c" stroke-width="2" stroke-dasharray="6 4"/>
<text x="908" y="132" font-size="12" font-family="Arial, sans-serif" fill="#2e3440">forecast h30</text>
</svg>
