<svg xmlns="http://www.w3.org/2000/svg" width="1080" height="610" viewBox="0 0 1080 610">
<rect width="100%" height="100%" fill="#ffffff"/>
<rect x="0" y="0" width="100%" height="56" fill="#eef6ff"/>
<text x="96" y="34" font-size="24" font-family="Arial, sans-serif" fill="#1b2a41">Blocking Probability Comparison</text>
<text x="96" y="54" font-size="13" font-family="Arial, sans-serif" fill="#415a77">Predictive scaling lowers peak blocking during tidal surges</text>
<line x1="96" y1="72.00" x2="860.00" y2="72.00" stroke="#e5e9f0" stroke-width="1"/>
<text x="84.00" y="76.00" text-anchor="end" font-size="12" font-family="Arial, sans-serif" fill="#4c566a">0.620</text>
<line x1="96" y1="165.20" x2="860.00" y2="165.20" stroke="#e5e9f0" stroke-width="1"/>
<text x="84.00" y="169.20" text-anchor="end" font-size="12" font-family="Arial, sans-serif" fill="#4c566a">0.496</text>
<line x1="96" y1="258.40" x2="860.00" y2="258.40" stroke="#e5e9f0" stroke-width="1"/>
<text x="84.00" y="262.40" text-anchor="end" font-size="12" font-family="Arial, sans-serif" fill="#4c566a">0.372</text>
<line x1="96" y1="351.60" x2="860.00" y2="351.60" stroke="#e5e9f0" stroke-width="1"/>
<text x="84.00" y="355.60" text-anchor="end" font-size="12" font-family="Arial, sans-serif" fill="#4c566a">0.248</text>
<line x1="96" y1="444.80" x2="860.00" y2="444.80" stroke="#e5e9f0" stroke-width="1"/>
<text x="84.00" y="448.80" text-anchor="end" font-size="12" font-family="Arial, sans-serif" fill="#4c566a">0.124</text>
<line x1="96" y1="538.00" x2="860.00" y2="538.00" stroke="#e5e9f0" stroke-width="1"/>
<text x="84.00" y="542.00" text-anchor="end" font-size="12" font-family="Arial, sans-serif" fill="#4c566a">0.000</text>
<line x1="96.00" y1="72" x2="96.00" y2="538.00" stroke="#f1f3f8" stroke-width="1"/>
<text x="96.00" y="560.00" text-anchor="middle" font-size="12" font-family="Arial, sans-serif" fill="#4c566a">0</text>
<line x1="191.77" y1="72" x2="191.77" y2="538.00" stroke="#f1f3f8" stroke-width="1"/>
<text x="191.77" y="560.00" text-anchor="middle" font-size="12" font-family="Arial, sans-serif" fill="#4c566a">45</text>
<line x1="287.53" y1="72" x2="287.53" y2="538.00" stroke="#f1f3f8" stroke-width="1"/>
<text x="287.53" y="560.00" text-anchor="middle" font-size="12" font-family="Arial, sans-serif" fill="#4c566a">90</text>
<line x1="383.30" y1="72" x2="383.30" y2="538.00" stroke="#f1f3f8" stroke-width="1"/>
<text x="383.30" y="560.00" text-anchor="middle" font-size="12" font-family="Arial, sans-serif" fill="#4c566a">135</text>
<line x1="479.06" y1="72" x2="479.06" y2="538.00" stroke="#f1f3f8" stroke-width="1"/>
<text x="479.06" y="560.00" text-anchor="middle" font-size="12" font-family="Arial, sans-serif" fill="#4c566a">180</text>
<line x1="574.83" y1="72" x2="574.83" y2="538.00" stroke="#f1f3f8" stroke-width="1"/>
<text x="574.83" y="560.00" text-anchor="middle" font-size="12" font-family="Arial, sans-serif" fill="#4c566a">225</text>
<line x1="670.60" y1="72" x2="670.60" y2="538.00" stroke="#f1f3f8" stroke-width="1"/>
<text x="670.60" y="560.00" text-anchor="middle" font-size="12" font-family="Arial, sans-serif" fill="#4c566a">270</text>
<line x1="766.36" y1="72" x2="766.36" y2="538.00" stroke="#f1f3f8" stroke-width="1"/>
<text x="766.36" y="560.00" text-anchor="middle" font-size="12" font-family="Arial, sans-serif" fill="#4c566a">315</text>
<line x1="860.00" y1="72" x2="860.00" y2="538.00" stroke="#f1f3f8" stroke-width="1"/>
<text x="860.00" y="560.00" text-anchor="middle" font-size="12" font-family="Arial, sans-serif" fill="#4c566a">359</text>
<line x1="96" y1="538.00" x2="860.00" y2="538.00" stroke="#2e3440" stroke-width="1.5"/>
<line x1="96" y1="72" x2="96" y2="538.00" stroke="#2e3440" stroke-width="1.5"/>
<text x="478.00" y="590.00" text-anchor="middle" font-size="13" font-family="Arial, sans-serif" fill="#2e3440">Minute</text>
<text x="20" y="305.00" transform="rotate(-90 20 305.00)" text-anchor="middle" font-size="13" font-family="Arial, sans-serif" fill="#2e3440">Blocking Probability</text>
<polyline points="96.00,122.02 98.13,140.01 100.26,110.84 102.38,113.01 104.51,114.54 106.64,128.65 108.77,101.54 110.90,92.11 113.03,72.00 115.15,90.29 117.28,309.39 119.41,313.69 121.54,301.58 123.67,278.14 125.79,267.07 127.92,344.33 130.05,270.06 132.18,283.62 134.31,271.02 136.43,261.32 138.56,431.50 140.69,409.11 142.82,401.54 144.95,423.65 147.08,416.56 149.20,406.49 151.33,406.06 153.46,372.33 155.59,385.53 157.72,391.22 159.84,425.66 161.97,377.62 164.10,376.04 166.23,414.50 168.36,405.66 170.48,432.82 172.61,392.89 174.74,396.91 176.87,383.66 179.00,396.19 181.13,431.70 183.25,425.89 185.38,419.16 187.51,459.67 189.64,413.85 191.77,427.39 193.89,406.65 196.02,409.09 198.15,423.60 200.28,446.24 202.41,487.25 204.53,460.49 206.66,476.78 208.79,468.99 210.92,449.94 213.05,476.80 215.18,469.99 217.30,474.44 219.43,482.43 221.56,488.09 223.69,457.81 225.82,455.50 227.94,480.50 230.07,473.52 232.20,498.75 234.33,467.62 236.46,484.43 238.58,488.41 240.71,492.49 242.84,503.70 244.97,489.99 247.10,490.77 249.23,499.07 251.35,502.08 253.48,499.44 255.61,508.79 257.74,486.41 259.87,497.42 261.99,512.69 264.12,506.43 266.25,506.60 268.38,526.53 270.51,511.00 272.64,505.08 274.76,515.73 276.89,523.18 279.02,505.12 281.15,523.20 283.28,502.13 285.40,516.55 287.53,525.94 289.66,504.79 291.79,521.48 293.92,519.32 296.04,503.29 298.17,518.95 300.30,514.88 302.43,515.59 304.56,511.61 306.69,521.39 308.81,509.36 310.94,506.13 313.07,513.79 315.20,514.53 317.33,513.10 319.45,507.27 321.58,497.11 323.71,500.02 325.84,496.15 327.97,507.57 330.09,485.46 332.22,478.87 334.35,490.60 336.48,473.08 338.61,496.24 340.74,508.71 342.86,473.37 344.99,469.92 347.12,475.29 349.25,475.63 351.38,476.98 353.50,476.89 355.63,475.70 357.76,471.75 359.89,492.68 362.02,482.88 364.14,492.75 366.27,485.33 368.40,498.66 370.53,478.25 372.66,481.90 374.79,497.33 376.91,494.65 379.04,490.08 381.17,504.26 383.30,496.00 385.43,496.94 387.55,523.21 389.68,519.56 391.81,518.88 393.94,505.86 396.07,517.36 398.19,523.25 400.32,530.03 402.45,527.84 404.58,524.20 406.71,533.51 408.84,531.17 410.96,531.52 413.09,534.84 415.22,532.70 417.35,534.27 419.48,535.87 421.60,536.74 423.73,537.69 425.86,537.09 427.99,537.78 430.12,537.25 432.25,537.96 434.37,537.08 436.50,537.91 438.63,537.81 440.76,537.00 442.89,537.80 445.01,537.47 447.14,537.71 449.27,537.92 451.40,536.91 453.53,537.69 455.65,537.80 457.78,537.81 459.91,529.75 462.04,536.82 464.17,533.20 466.30,520.98 468.42,534.89 470.55,536.09 472.68,534.48 474.81,529.38 476.94,535.86 479.06,536.54 481.19,536.14 483.32,520.62 485.45,529.11 487.58,529.78 489.70,529.21 491.83,520.44 493.96,525.93 496.09,528.31 498.22,525.88 500.35,527.54 502.47,517.72 504.60,525.83 506.73,515.07 508.86,526.02 510.99,516.27 513.11,519.66 515.24,511.14 517.37,494.68 519.50,511.90 521.63,519.29 523.75,514.61 525.88,487.41 528.01,511.67 530.14,512.18 532.27,491.55 534.40,502.91 536.52,486.80 538.65,512.67 540.78,491.20 542.91,506.65 545.04,510.60 547.16,472.87 549.29,508.13 551.42,488.69 553.55,490.30 555.68,519.17 557.81,494.94 559.93,501.71 562.06,500.09 564.19,488.53 566.32,490.01 568.45,477.32 570.57,503.67 572.70,496.54 574.83,510.22 576.96,504.18 579.09,471.74 581.21,506.90 583.34,475.53 585.47,487.18 587.60,493.59 589.73,491.09 591.86,509.18 593.98,512.59 596.11,493.76 598.24,482.24 600.37,497.57 602.50,479.04 604.62,463.39 606.75,469.84 608.88,484.55 611.01,484.67 613.14,470.98 615.26,472.51 617.39,490.21 619.52,476.46 621.65,454.44 623.78,469.92 625.91,476.41 628.03,476.27 630.16,454.54 632.29,453.20 634.42,456.77 636.55,428.93 638.67,456.10 640.80,432.54 642.93,435.08 645.06,455.07 647.19,451.53 649.31,446.82 651.44,454.89 653.57,421.64 655.70,413.93 657.83,413.38 659.96,407.36 662.08,401.57 664.21,424.60 666.34,426.24 668.47,453.67 670.60,429.23 672.72,436.93 674.85,439.90 676.98,431.56 679.11,422.16 681.24,449.99 683.36,431.06 685.49,493.79 687.62,502.22 689.75,470.59 691.88,477.56 694.01,476.81 696.13,480.85 698.26,483.42 700.39,504.34 702.52,492.49 704.65,495.06 706.77,489.52 708.90,504.00 711.03,516.60 713.16,507.27 715.29,506.09 717.42,515.68 719.54,526.46 721.67,528.10 723.80,522.15 725.93,522.06 728.06,533.16 730.18,531.32 732.31,535.35 734.44,535.81 736.57,535.64 738.70,536.69 740.82,537.39 742.95,535.65 745.08,537.39 747.21,536.72 749.34,537.71 751.47,537.85 753.59,537.94 755.72,537.99 757.85,537.90 759.98,537.98 762.11,537.99 764.23,537.99 766.36,538.00 768.49,538.00 770.62,538.00 772.75,538.00 774.87,538.00 777.00,538.00 779.13,538.00 781.26,538.00 783.39,537.98 785.52,538.00 787.64,538.00 789.77,538.00 791.90,538.00 794.03,538.00 796.16,538.00 798.28,538.00 800.41,538.00 802.54,538.00 804.67,538.00 806.80,538.00 808.92,538.00 811.05,538.00 813.18,538.00 815.31,538.00 817.44,538.00 819.57,538.00 821.69,538.00 823.82,538.00 825.95,537.98 828.08,537.99 830.21,537.99 832.33,538.00 834.46,537.99 836.59,526.47 838.72,531.59 840.85,530.65 842.97,525.96 845.10,530.26 847.23,519.99 849.36,519.00 851.49,528.99 853.62,526.57 855.74,511.98 857.87,515.04 860.00,501.59" fill="none" stroke="#d62728" stroke-width="2.8"/>
<circle cx="96.00" cy="122.02" r="3.2" fill="#d62728"/>
<circle cx="113.03" cy="72.00" r="3.2" fill="#d62728"/>
<circle cx="130.05" cy="270.06" r="3.2" fill="#d62728"/>
<circle cx="147.08" cy="416.56" r="3.2" fill="#d62728"/>
<circle cx="164.10" cy="376.04" r="3.2" fill="#d62728"/>
<circle cx="181.13" cy="431.70" r="3.2" fill="#d62728"/>
<circle cx="198.15" cy="423.60" r="3.2" fill="#d62728"/>
<circle cx="215.18" cy="469.99" r="3.2" fill="#d62728"/>
<circle cx="232.20" cy="498.75" r="3.2" fill="#d62728"/>
<circle cx="249.23" cy="499.07" r="3.2" fill="#d62728"/>
<circle cx="266.25" cy="506.60" r="3.2" fill="#d62728"/>
<circle cx="283.28" cy="502.13" r="3.2" fill="#d62728"/>
<circle cx="300.30" cy="514.88" r="3.2" fill="#d62728"/>
<circle cx="317.33" cy="513.10" r="3.2" fill="#d62728"/>
<circle cx="334.35" cy="490.60" r="3.2" fill="#d62728"/>
<circle cx="351.38" cy="476.98" r="3.2" fill="#d62728"/>
<circle cx="368.40" cy="498.66" r="3.2" fill="#d62728"/>
<circle cx="385.43" cy="496.94" r="3.2" fill="#d62728"/>
<circle cx="402.45" cy="527.84" r="3.2" fill="#d62728"/>
<circle cx="419.48" cy="535.87" r="3.2" fill="#d62728"/>
<circle cx="436.50" cy="537.91" r="3.2" fill="#d62728"/>
<circle cx="453.53" cy="537.69" r="3.2" fill="#d62728"/>
<circle cx="470.55" cy="536.09" r="3.2" fill="#d62728"/>
<circle cx="487.58" cy="529.78" r="3.2" fill="#d62728"/>
<circle cx="504.60" cy="525.83" r="3.2" fill="#d62728"/>
<circle cx="521.63" cy="519.29" r="3.2" fill="#d62728"/>
<circle cx="538.65" cy="512.67" r="3.2" fill="#d62728"/>
<circle cx="555.68" cy="519.17" r="3.2" fill="#d62728"/>
<circle cx="572.70" cy="496.54" r="3.2" fill="#d62728"/>
<circle cx="589.73" cy="491.09" r="3.2" fill="#d62728"/>
<circle cx="606.75" cy="469.84" r="3.2" fill="#d62728"/>
<circle cx="623.78" cy="469.92" r="3.2" fill="#d62728"/>
<circle cx="640.80" cy="432.54" r="3.2" fill="#d62728"/>
<circle cx="657.83" cy="413.38" r="3.2" fill="#d62728"/>
<circle cx="674.85" cy="439.90" r="3.2" fill="#d62728"/>
<circle cx="691.88" cy="477.56" r="3.2" fill="#d62728"/>
<circle cx="708.90" cy="504.00" r="3.2" fill="#d62728"/>
<circle cx="725.93" cy="522.06" r="3.2" fill="#d62728"/>
<circle cx="742.95" cy="535.65" r="3.2" fill="#d62728"/>
<circle cx="759.98" cy="537.98" r="3.2" fill="#d62728"/>
<circle cx="777.00" cy="538.00" r="3.2" fill="#d62728"/>
<circle cx="794.03" cy="538.00" r="3.2" fill="#d62728"/>
<circle cx="811.05" cy="538.00" r="3.2" fill="#d62728"/>
<circle cx="828.08" cy="537.99" r="3.2" fill="#d62728"/>
<circle cx="845.10" cy="530.26" r="3.2" fill="#d62728"/>
<circle cx="860.00" cy="501.59" r="3.2" fill="#d62728"/>
<polyline points="96.00,122.02 98.13,140.01 100.26,110.84 102.38,113.01 104.51,114.54 106.64,128.65 108.77,101.54 110.90,92.11 113.03,72.00 115.15,90.29 117.28,309.39 119.41,313.69 121.54,301.58 123.67,278.14 125.79,267.07 127.92,344.33 130.05,270.06 132.18,283.62 134.31,271.02 136.43,261.32 138.56,431.50 140.69,409.11 142.82,401.54 144.95,423.65 147.08,416.56 149.20,406.49 151.33,406.06 153.46,372.33 155.59,385.53 157.72,391.22 159.84,494.94 161.97,458.56 164.10,457.24 166.23,487.26 168.36,480.83 170.48,499.60 172.61,471.03 174.74,474.17 176.87,463.58 179.00,473.61 181.13,460.92 183.25,455.69 185.38,449.55 187.51,485.22 189.64,444.66 191.77,457.04 193.89,452.18 196.02,454.35 198.15,466.96 200.28,485.53 202.41,487.25 204.53,460.49 206.66,476.78 208.79,468.99 210.92,449.94 213.05,476.80 215.18,469.99 217.30,474.44 219.43,482.43 221.56,488.09 223.69,457.81 225.82,455.50 227.94,480.50 230.07,473.52 232.20,498.75 234.33,467.62 236.46,484.43 238.58,488.41 240.71,492.49 242.84,503.70 244.97,489.99 247.10,490.77 249.23,499.07 251.35,502.08 253.48,499.44 255.61,508.79 257.74,486.41 259.87,497.42 261.99,512.69 264.12,506.43 266.25,506.60 268.38,526.53 270.51,511.00 272.64,505.08 274.76,515.73 276.89,523.18 279.02,505.12 281.15,523.20 283.28,502.13 285.40,516.55 287.53,525.94 289.66,504.79 291.79,521.48 293.92,519.32 296.04,503.29 298.17,518.95 300.30,514.88 302.43,515.59 304.56,511.61 306.69,521.39 308.81,509.36 310.94,506.13 313.07,513.79 315.20,514.53 317.33,513.10 319.45,507.27 321.58,497.11 323.71,500.02 325.84,496.15 327.97,507.57 330.09,485.46 332.22,478.87 334.35,490.60 336.48,473.08 338.61,496.24 340.74,508.71 342.86,473.37 344.99,469.92 347.12,475.29 349.25,475.63 351.38,476.98 353.50,476.89 355.63,475.70 357.76,471.75 359.89,492.68 362.02,482.88 364.14,492.75 366.27,485.33 368.40,498.66 370.53,478.25 372.66,481.90 374.79,497.33 376.91,494.65 379.04,490.08 381.17,504.26 383.30,496.00 385.43,496.94 387.55,523.21 389.68,519.56 391.81,518.88 393.94,505.86 396.07,517.36 398.19,523.25 400.32,530.03 402.45,527.84 404.58,524.20 406.71,533.51 408.84,531.17 410.96,531.52 413.09,534.84 415.22,532.70 417.35,534.27 419.48,535.87 421.60,536.74 423.73,537.69 425.86,537.09 427.99,537.78 430.12,537.25 432.25,537.96 434.37,537.08 436.50,537.91 438.63,537.81 440.76,537.00 442.89,537.80 445.01,537.47 447.14,537.71 449.27,537.92 451.40,536.91 453.53,537.69 455.65,537.80 457.78,537.81 459.91,529.75 462.04,536.82 464.17,533.20 466.30,520.98 468.42,534.89 470.55,536.09 472.68,534.48 474.81,529.38 476.94,535.86 479.06,536.54 481.19,536.14 483.32,520.62 485.45,529.11 487.58,529.78 489.70,529.21 491.83,520.44 493.96,525.93 496.09,528.31 498.22,525.88 500.35,527.54 502.47,517.72 504.60,525.83 506.73,515.07 508.86,526.02 510.99,516.27 513.11,519.66 515.24,511.14 517.37,494.68 519.50,511.90 521.63,519.29 523.75,514.61 525.88,487.41 528.01,511.67 530.14,512.18 532.27,491.55 534.40,502.91 536.52,486.80 538.65,512.67 540.78,491.20 542.91,506.65 545.04,510.60 547.16,472.87 549.29,508.13 551.42,488.69 553.55,490.30 555.68,519.17 557.81,494.94 559.93,501.71 562.06,500.09 564.19,488.53 566.32,490.01 568.45,477.32 570.57,503.67 572.70,496.54 574.83,510.22 576.96,504.18 579.09,471.74 581.21,506.90 583.34,475.53 585.47,487.18 587.60,493.59 589.73,491.09 591.86,509.18 593.98,512.59 596.11,493.76 598.24,482.24 600.37,497.57 602.50,479.04 604.62,463.39 606.75,469.84 608.88,484.55 611.01,484.67 613.14,470.98 615.26,472.51 617.39,490.21 619.52,476.46 621.65,454.44 623.78,483.10 625.91,488.92 628.03,488.80 630.16,469.03 632.29,467.79 634.42,471.09 636.55,444.98 638.67,470.47 640.80,448.40 642.93,435.08 645.06,469.19 647.19,465.91 649.31,461.51 651.44,469.03 653.57,437.61 655.70,430.18 657.83,429.65 659.96,423.82 662.08,418.19 664.21,408.56 666.34,455.38 668.47,479.63 670.60,458.09 672.72,465.00 674.85,467.64 676.98,460.19 679.11,451.66 681.24,476.46 683.36,459.74 685.49,483.16 687.62,492.67 689.75,457.78 691.88,465.31 694.01,464.48 696.13,468.88 698.26,471.68 700.39,495.11 702.52,481.70 704.65,484.58 706.77,478.40 708.90,494.72 711.03,509.50 713.16,498.49 715.29,497.12 717.42,508.39 719.54,521.72 721.67,523.84 723.80,516.28 725.93,516.18 728.06,530.63 730.18,528.11 732.31,533.76 734.44,534.45 736.57,534.19 738.70,535.79 740.82,536.92 742.95,534.21 745.08,536.92 747.21,535.83 749.34,537.46 751.47,537.72 753.59,537.88 755.72,537.99 757.85,537.80 759.98,537.96 762.11,537.98 764.23,537.98 766.36,537.99 768.49,537.99 770.62,538.00 772.75,538.00 774.87,538.00 777.00,538.00 779.13,538.00 781.26,537.98 783.39,537.90 785.52,538.00 787.64,538.00 789.77,538.00 791.90,537.99 794.03,538.00 796.16,538.00 798.28,538.00 800.41,537.99 802.54,538.00 804.67,537.99 806.80,537.99 808.92,538.00 811.05,538.00 813.18,538.00 815.31,537.98 817.44,538.00 819.57,537.99 821.69,537.99 823.82,537.97 825.95,537.88 828.08,537.96 830.21,537.95 832.33,537.99 834.46,537.97 836.59,537.61 838.72,537.86 840.85,537.82 842.97,537.58 845.10,537.80 847.23,537.16 849.36,537.07 851.49,537.75 853.62,537.62 855.74,536.37 857.87,536.70 860.00,534.94" fill="none" stroke="#2ca02c" stroke-width="2.8"/>
<circle cx="96.00" cy="122.02" r="3.2" fill="#2ca02c"/>
<circle cx="113.03" cy="72.00" r="3.2" fill="#2ca02c"/>
<circle cx="130.05" cy="270.06" r="3.2" fill="#2ca02c"/>
<circle cx="147.08" cy="416.56" r="3.2" fill="#2ca02c"/>
<circle cx="164.10" cy="457.24" r="3.2" fill="#2ca02c"/>
<circle cx="181.13" cy="460.92" r="3.2" fill="#2ca02c"/>
<circle cx="198.15" cy="466.96" r="3.2" fill="#2ca02c"/>
<circle cx="215.18" cy="469.99" r="3.2" fill="#2ca02c"/>
<circle cx="232.20" cy="498.75" r="3.2" fill="#2ca02c"/>
<circle cx="249.23" cy="499.07" r="3.2" fill="#2ca02c"/>
<circle cx="266.25" cy="506.60" r="3.2" fill="#2ca02c"/>
<circle cx="283.28" cy="502.13" r="3.2" fill="#2ca02c"/>
<circle cx="300.30" cy="514.88" r="3.2" fill="#2ca02c"/>
<circle cx="317.33" cy="513.10" r="3.2" fill="#2ca02c"/>
<circle cx="334.35" cy="490.60" r="3.2" fill="#2ca02c"/>
<circle cx="351.38" cy="476.98" r="3.2" fill="#2ca02c"/>
<circle cx="368.40" cy="498.66" r="3.2" fill="#2ca02c"/>
<circle cx="385.43" cy="496.94" r="3.2" fill="#2ca02c"/>
<circle cx="402.45" cy="527.84" r="3.2" fill="#2ca02c"/>
<circle cx="419.48" cy="535.87" r="3.2" fill="#2ca02c"/>
<circle cx="436.50" cy="537.91" r="3.2" fill="#2ca02c"/>
<circle cx="453.53" cy="537.69" r="3.2" fill="#2ca02c"/>
<circle cx="470.55" cy="536.09" r="3.2" fill="#2ca02c"/>
<circle cx="487.58" cy="529.78" r="3.2" fill="#2ca02c"/>
<circle cx="504.60" cy="525.83" r="3.2" fill="#2ca02c"/>
<circle cx="521.63" cy="519.29" r="3.2" fill="#2ca02c"/>
<circle cx="538.65" cy="512.67" r="3.2" fill="#2ca02c"/>
<circle cx="555.68" cy="519.17" r="3.2" fill="#2ca02c"/>
<circle cx="572.70" cy="496.54" r="3.2" fill="#2ca02c"/>
<circle cx="589.73" cy="491.09" r="3.2" fill="#2ca02c"/>
<circle cx="606.75" cy="469.84" r="3.2" fill="#2ca02c"/>
<circle cx="623.78" cy="483.10" r="3.2" fill="#2ca02c"/>
<circle cx="640.80" cy="448.40" r="3.2" fill="#2ca02c"/>
<circle cx="657.83" cy="429.65" r="3.2" fill="#2ca02c"/>
<circle cx="674.85" cy="467.64" r="3.2" fill="#2ca02c"/>
<circle cx="691.88" cy="465.31" r="3.2" fill="#2ca02c"/>
<circle cx="708.90" cy="494.72" r="3.2" fill="#2ca02c"/>
<circle cx="725.93" cy="516.18" r="3.2" fill="#2ca02c"/>
<circle cx="742.95" cy="534.21" r="3.2" fill="#2ca02c"/>
<circle cx="759.98" cy="537.96" r="3.2" fill="#2ca02c"/>
<circle cx="777.00" cy="538.00" r="3.2" fill="#2ca02c"/>
<circle cx="794.03" cy="538.00" r="3.2" fill="#2ca02c"/>
<circle cx="811.05" cy="538.00" r="3.2" fill="#2ca02c"/>
<circle cx="828.08" cy="537.96" r="3.2" fill="#2ca02c"/>
<circle cx="845.10" cy="537.80" r="3.2" fill="#2ca02c"/>
<circle cx="860.00" cy="534.94" r="3.2" fill="#2ca02c"/>
<text x="878" y="78" font-size="12" font-family="Arial, sans-serif" fill="#1f2937">Series</text>
<line x1="878" y1="84" x2="900" y2="84" stroke="#d62728" stroke-width="3" />
<text x="908" y="88" font-size="12" font-family="Arial, sans-serif" fill="#2e3440">reactive blocking</text>
<line x1="878" y1="106" x2="900" y2="106" stroke="#2ca02c" stroke-width="3" />
<text x="908" y="110" font-size="12" font-family="Arial, sans-serif" fill="#2e3440">predictive blocking</text>
</svg>
